<?xml version="1.0" encoding="iso-8859-1"?>
<!-- Generator: Adobe Illustrator 16.0.0, SVG Export Plug-In . SVG Version: 6.00 Build 0)  -->
<!DOCTYPE svg PUBLIC "-//W3C//DTD SVG 1.1//EN" "http://www.w3.org/Graphics/SVG/1.1/DTD/svg11.dtd">
<svg version="1.1" id="Capa_1" xmlns="http://www.w3.org/2000/svg" xmlns:xlink="http://www.w3.org/1999/xlink" x="0px" y="0px"
	 width="94px" height="94px" viewBox="0 0 94 94" style="enable-background:new 0 0 94 94;" xml:space="preserve">
<g>
	<g>
		<path style="opacity:0.88;enable-background:new    ;" d="M47.423,21.432c0.154,0.055,0.306,0.102,0.457,0.154
			c0.123,0,0.252-0.004,0.332-0.033c-0.008-0.502-0.278-0.697-0.453-1.027c-0.088-0.17-0.137-0.4-0.274-0.52
			c0.055-0.182,0.557-0.232,0.758-0.301c0.494-0.162,1.053-0.324,1.549-0.488c0.234-0.074,0.51-0.057,0.697-0.178
			c0.113,0.008,0.17,0.021,0.213,0.088c0.109,0.166,0.199,1.279,0.121,1.609c-0.307,1.275-0.688,2.27-1.484,3.031v0.035
			c0.293-0.051,0.432-0.338,0.633-0.486c0.807-0.611,1.354-1.514,1.639-2.641c0.17-0.664-0.104-1.314,0.154-1.881h-0.029
			c-0.059-0.145-0.832-0.424-1.065-0.424c-0.125,0.137-0.306,0.318-0.485,0.393c-0.271,0.117-0.644,0.086-0.877,0.242
			c-0.222-0.02-0.39-0.436-0.242-0.605c-0.008-0.068-0.006-0.088-0.031-0.121c-0.184-0.146-0.65-0.131-0.971-0.121
			c-0.104,0.094-0.193,0.113-0.24,0.273h-0.031c-0.016,0.059,0.016,0.039,0.031,0.061c0.02,0.012,0.121-0.004,0.182,0.029
			c0.344,0.037,0.334,0.434,0.516,0.639c-0.02,0.053-0.01,0.031-0.031,0.061c-0.12,0.094-0.997,0.346-1.184,0.396
			c-0.143,0.035-0.316-0.055-0.424-0.063c-0.258-0.021-0.486,0.121-0.639,0.211c0.082,0.121,0.332,0.09,0.426,0.211
			C46.987,20.406,47.132,20.959,47.423,21.432z"/>
		<path style="opacity:0.88;enable-background:new    ;" d="M29.466,48.4v0.029c0.047,0.067,0.047,0.2,0.09,0.271
			c-0.018,0.055-0.006,0.028-0.031,0.061c-0.125,0.087-0.309,0.05-0.484,0.091c-0.359,0.09-1.523,0.375-1.789,0.125
			c-0.172-0.06-0.283-0.279-0.305-0.488c-0.076,0.004-0.111,0.004-0.15,0.031h-0.063c0.113,0.588,0.223,1.172,0.332,1.76h0.031
			v0.031c1.063-0.187,2.125-0.367,3.186-0.547c-0.152-0.558-0.303-1.113-0.455-1.675c-0.084-0.127-0.357-0.11-0.514-0.176
			c-0.266-0.108-0.596-0.354-0.76-0.576c-0.486-0.672-1.025-2.26-0.666-3.455c0.291-0.973,0.922-1.633,1.941-1.885
			c0.516-0.125,1.07,0.047,1.396,0.215c0.926,0.479,1.322,1.154,1.605,2.273c0.369,1.447-0.1,2.775-1.061,3.217
			c0.059,0.584,0.121,1.17,0.182,1.758c0.342-0.01,0.652-0.08,0.941-0.151c0.482-0.119,0.973-0.136,1.424-0.24
			c0.332-0.08,0.809-0.012,1.063-0.183c0.059-0.131-0.189-1.036-0.242-1.243c-0.045-0.177-0.006-0.355-0.09-0.486v-0.062
			c-0.07,0.011-0.143,0.021-0.213,0.029c0.014,0.916-0.641,0.791-1.365,0.974c-0.363,0.092-0.805,0.207-1.215,0.209
			c0-0.13,0-0.263,0-0.394c0.037-0.063,0.568-0.297,0.668-0.365c0.354-0.243,0.711-0.633,0.941-0.998
			c0.154-0.252,0.279-0.588,0.363-0.881c0.105-0.377,0.117-0.898,0.031-1.275c-0.063-0.26-0.037-0.461-0.121-0.697
			c-0.328-0.91-1.014-1.574-1.883-1.943c-0.393-0.164-0.836-0.172-1.303-0.271c-0.412-0.09-1.158,0.096-1.457,0.182
			c-1.459,0.432-2.451,1.137-2.912,2.547c-0.18,0.561-0.125,1.332,0.031,1.852C26.972,47.258,27.974,48.377,29.466,48.4z"/>
		<path style="opacity:0.88;enable-background:new    ;" d="M53.458,21.008c0.144,0.07,0.144,0.254,0.213,0.393
			c0.144,0.283,0.336,0.631,0.425,0.941v0.242c0.071,0.195,0.305,0.219,0.456,0.336c0.119-0.016,0.164-0.049,0.24-0.094
			c-0.051-0.574-0.401-1.055-0.604-1.516c-0.062-0.145-0.158-0.346-0.181-0.484c-0.019-0.086,0.048-0.129,0-0.211
			c-0.041-0.096-0.057-0.066-0.12-0.121c-0.048-0.031-0.021-0.016,0-0.061c0.053-0.111,0.163-0.221,0.211-0.336
			c0.102-0.236,0.098-0.443,0.303-0.574c-0.029-0.316-0.488-0.352-0.848-0.334c-0.044,0.031-0.119,0.047-0.187,0.057
			c0.041,0.08,0.063,0.098,0.155,0.121c0.086,0.891-0.539,1.707-0.944,2.244c-0.158,0.217-0.427,0.352-0.574,0.58h-0.028v0.027
			C52.374,22.154,53.253,21.318,53.458,21.008z"/>
		<path style="opacity:0.88;enable-background:new    ;" d="M40.843,66.172c0.031-0.01,0.063-0.018,0.092-0.031
			c-0.018-0.396-0.773-0.565-1.186-0.451c-0.182,0.052-0.395,0.164-0.576,0.211c-0.143,0.013-0.283,0.021-0.426,0.031
			c-0.047-0.496-0.291-0.879-0.303-1.395c0.455-0.01,1.027-0.07,1.334-0.242c-0.006-0.154-0.035-0.154-0.09-0.24
			c-0.348-0.084-0.943-0.098-1.215,0.086c-0.076-0.002-0.113-0.002-0.15-0.029c-0.17-0.213-0.09-0.647-0.244-0.877v-0.118
			c0.328-0.072,0.861-0.132,1.031-0.367c0.025-0.031,0.012-0.01,0.031-0.062c-0.025-0.024-0.039-0.051-0.061-0.092
			c-0.475-0.119-0.68-0.035-1.092,0.125c-0.127-0.414,0.025-0.736-0.393-0.85c0.09-0.158,0.387-0.15,0.576-0.213
			c0.291-0.096,0.625-0.227,0.879-0.363c0.02-0.053,0.006-0.033,0.031-0.062c-0.018-0.152-0.061-0.148-0.123-0.242
			c-0.438-0.031-0.787,0.01-1.031,0.242H37.87c0.037-0.226,0.176-0.551,0.303-0.726c0.086-0.127,0.244-0.108,0.305-0.272h0.029
			v-0.035c-0.063-0.078-0.121-0.162-0.184-0.238c-0.143-0.102-0.346-0.111-0.484-0.215c-0.201-0.006-0.395-0.002-0.514,0.061
			c0.016,0.117,0.066,0.189,0.09,0.271c0.084,0.312-0.217,1.281-0.334,1.426c-0.096,0.117-1.189,0.518-1.488,0.426
			c-0.07-0.022-0.273-0.125-0.332-0.184c-0.023-0.027-0.012-0.004-0.029-0.057c0.43-0.406,0.738-1.31,1.334-1.488
			c0.01-0.051,0.021-0.102,0.031-0.15c-0.146-0.152-0.869-0.912-1.244-0.668c-0.031,0.012-0.061,0.02-0.09,0.027
			c0,0.26,0.129,0.457,0.059,0.73c-0.139,0.547-0.449,1.19-0.727,1.641c-0.168,0.266-0.531,0.559-0.545,0.941
			c0.494-0.05,0.615-0.562,0.998-0.699c0.113,0.104,0.223,0.203,0.336,0.303c0.158,0.238,0.129,0.598,0.209,0.908
			c0.145,0.656,0.287,1.313,0.428,1.973c0.02,0.324,0.039,0.646,0.061,0.973c0.08,0.293,0.322,0.803,0.637,0.873
			c0.049,0.025,0.092,0.016,0.15-0.029c0.107-0.088,0.049-0.239,0.123-0.364c0.17-0.123,0.471-0.093,0.697-0.152
			c0.621-0.164,1.344-0.153,2.031-0.305C40.048,66.131,40.583,66.324,40.843,66.172z M35.927,62.232
			c0.047-0.082,0.854-0.209,0.941-0.152c0.322,0.15,0.207,0.623,0.395,0.908c-0.064,0.15-0.805,0.375-1.033,0.396
			C36.19,63.062,36.136,62.406,35.927,62.232z M36.323,63.719c0.23-0.021,0.832-0.221,1-0.334h0.029
			c0.059,0.275,0.092,0.75,0.244,0.971c-0.111,0.269-0.779,0.244-1.031,0.396C36.458,64.688,36.317,63.928,36.323,63.719z
			 M38.021,66.084c-0.365,0.078-0.746,0.184-1.154,0.18c-0.063-0.43-0.27-0.812-0.271-1.271c0.465-0.011,0.703-0.199,1.09-0.244
			c0.023,0.283,0.199,1.078,0.336,1.272C38.021,66.041,38.021,66.062,38.021,66.084z"/>
		<path style="opacity:0.88;enable-background:new    ;" d="M50.214,34.23c0.606,0.184,1.043,0.873,1.394,1.336
			c0.151,0.203,0.393,0.369,0.545,0.578c0.652,0.863,1.387,1.645,2.033,2.516c0.252,0.34,0.592,0.633,0.815,1.002
			c0.14-0.006,0.164-0.02,0.242-0.064c0.164-0.711,0.256-1.428,0.457-2.15c0.092-0.332,0.207-0.723,0.239-1.094
			c0.252,0.088,0.455,0.465,0.609,0.668c0.473,0.631,1.141,1.15,1.576,1.82c0.125-0.006,0.141-0.02,0.213-0.061
			c0.137-1.029,0.266-2.062,0.398-3.092v-0.305c0.137-0.611,0.104-1.352,0.24-1.969c0.186-0.836-0.078-1.645,0.76-1.852
			c0.016-0.08,0.045-0.113,0-0.182c-0.021-0.055-0.008-0.031-0.031-0.064c-0.033-0.021-0.029-0.016-0.088-0.027
			c-0.234,0.172-0.867,0.285-1.186,0.365c-0.238,0.057-0.488,0.008-0.666,0.119c-0.029,0.012-0.062,0.02-0.093,0.029
			c0.013,0.063,0.021,0.123,0.031,0.184c0.348,0.111,0.666-0.023,0.817,0.271c0.101,0.195,0.086,0.889,0.031,1.156
			c-0.193,0.893-0.115,1.908-0.305,2.787c-0.066,0.305,0.018,0.898-0.121,1.123v0.062c-0.186-0.09-0.305-0.328-0.424-0.488
			c-0.271-0.355-0.672-0.643-0.943-0.998c-0.162-0.217-0.336-0.475-0.547-0.639c0.029-0.584,0.201-1.195,0.338-1.729
			c0.102-0.4,0.104-0.771,0.303-1.063c0.113-0.164,0.39-0.271,0.576-0.363c-0.004-0.074-0.004-0.111-0.029-0.15
			c-0.014-0.031-0.02-0.063-0.03-0.092c-0.416,0.062-0.771,0.26-1.152,0.363c-0.348,0.096-0.696,0.07-0.973,0.211
			c0.01,0.07,0.006,0.086,0.03,0.121c0.013,0.029,0.021,0.064,0.029,0.094c1.066-0.064,0.906,0.518,0.699,1.334
			c-0.064,0.25-0.021,0.594-0.152,0.787v0.061h-0.028c-0.22-0.33-0.548-0.652-0.818-0.938c-0.112-0.105-0.226-0.205-0.334-0.307
			c-0.08-0.104-0.123-0.238-0.213-0.332c0.021-0.334,0.291-0.422,0.547-0.516c-0.01-0.139-0.039-0.158-0.09-0.244
			c-0.791,0.117-1.479,0.561-2.367,0.607v0.031H52.52c0.002,0.074,0.002,0.111,0.028,0.15v0.061
			c0.177,0.029,0.435-0.039,0.638,0.029c0.328,0.117,0.621,0.5,0.819,0.762c0.295,0.393,0.763,0.727,1.062,1.121
			c0.154,0.211,0.332,0.484,0.545,0.637c-0.027,0.535-0.176,1.094-0.305,1.58c-0.064,0.246-0.025,0.563-0.15,0.756
			c-0.018,0.051-0.006,0.029-0.029,0.061c-0.289-0.547-0.848-0.969-1.213-1.457c-0.703-0.934-1.488-1.775-2.215-2.697
			c0-0.131,0.008-0.207,0.061-0.273c0.055-0.176,0.273-0.34,0.484-0.365c0.014-0.092,0.027-0.104-0.029-0.182
			c-0.012-0.029-0.02-0.061-0.031-0.092c-0.617,0.098-1.166,0.383-1.758,0.549c-0.307,0.084-0.713,0.043-0.943,0.211
			c-0.028,0.01-0.061,0.021-0.09,0.029c0.017,0.117,0.049,0.135,0.09,0.213C49.725,34.229,49.979,34.16,50.214,34.23z"/>
		<path style="opacity:0.88;enable-background:new    ;" d="M40.991,77.941c0.23,0.084,0.416,0.307,0.637,0.424
			c0.586,0.307,1.551,0.559,2.428,0.367c0.432-0.099,0.877-0.099,1-0.488c0.137-0.213-0.051-0.512-0.119-0.631
			c-0.283-0.506-0.656-0.836-1.123-1.154c-1.545-1.059-3.822-2.127-6.461-2.062c-0.129,0.08-0.387,0.018-0.547,0.061
			c-0.219,0.059-0.355,0.17-0.514,0.271c-0.006,0.746,1.107,1.147,1.729,1.303c0.369,0.094,0.697-0.08,0.91-0.152
			c0.166-0.629-0.594-0.721-0.939-1.033h-0.063v-0.029c2.328-0.09,4.07,0.562,5.4,1.552c0.332,0.243,0.711,0.598,0.877,0.998
			c0.064,0.147,0.09,0.397,0,0.52c-0.121,0.339-0.523,0.308-0.908,0.394c-0.891,0.207-2.113-0.297-2.518-0.695
			c-0.084,0.145,0.037,0.365-0.094,0.516c-0.135,0.367-0.602,0.273-1.031,0.365c-0.701,0.15-1.803-0.209-2.213-0.488
			c-0.115-0.078-0.195-0.219-0.305-0.301c-0.006-0.08-0.012-0.104-0.031-0.152c0.063-0.057,0.137-0.143,0.182-0.211
			c0.875-0.065,1.318-0.02,1.822,0.455c-0.014,0.062-0.008,0.058-0.031,0.088c-0.057,0.117-0.189,0.131-0.363,0.127v0.054
			c0.32,0.004,0.455-0.043,0.637-0.15c0.01-0.061,0.021-0.12,0.031-0.18c-0.105-0.108-0.178-0.252-0.305-0.338
			c-0.498-0.324-1.525-0.488-2.094-0.117c-0.088,0.433,0.18,0.662,0.428,0.847c0.494,0.373,0.912,0.592,1.607,0.788
			c0.223,0.063,0.422,0.007,0.668,0.062c0.215,0.047,0.586,0.057,0.82,0c0.385-0.1,0.922-0.506,0.482-0.977L40.991,77.941
			L40.991,77.941z M38.2,75.062c0.107,0.072,0.17,0.224,0.273,0.304c-0.002,0.077-0.004,0.112-0.029,0.151
			c-0.199,0.535-1.309,0.142-1.578-0.061c-0.084-0.062-0.119-0.191-0.182-0.271c0.012-0.062,0.008-0.061,0.031-0.09
			c0.084-0.236,0.32-0.156,0.516-0.27C37.616,74.822,37.964,74.898,38.2,75.062z"/>
		<path style="opacity:0.88;enable-background:new    ;" d="M48.878,81.068c0.015-0.029,0.021-0.062,0.033-0.09
			c-0.75-0.031-1.5-0.062-2.246-0.09c-0.094,0.061-0.238,0.022-0.365,0.059c-0.154,0.043-0.324,0.115-0.453,0.182
			c0.02,0.053,0.006,0.029,0.031,0.061c0.182,0.144,1.244,0.152,1.455,0h0.062v-0.061c-0.32-0.104-0.909,0.154-1.152,0H46.21v-0.031
			c0.808-0.055,1.709-0.033,2.552-0.029c-0.082,0.054-0.255,0.037-0.337,0.091c-0.03,0.012-0.062,0.021-0.09,0.03v0.062
			c0.183,0.024,0.365,0.06,0.545,0.09c0.027,0.031-0.002,0.002,0.031,0.029c-0.271,0.18-0.964,0.104-1.214-0.029v-0.063
			c-0.137-0.063-0.759,0.065-0.88,0.094c-0.102,0.023-0.207-0.014-0.273,0.029c-0.125,0.006-0.139,0.021-0.211,0.061
			c0.018,0.096,0.025,0.09,0.063,0.15c0.193,0.047,0.531,0.051,0.756,0.121v-0.029h0.031V81.67
			c-0.113-0.045-0.433-0.018-0.547-0.088h-0.061c0.102-0.082,1.092-0.213,1.272-0.092c0.053,0.016,0.031,0.006,0.062,0.029
			c-0.162,0.03-0.326,0.062-0.486,0.09c0.021,0.053,0.009,0.031,0.031,0.061c0.049,0.035,0.147,0.035,0.241,0.031
			c-0.03,0.055-0.038,0.082-0.092,0.119c0.01,0.02,0.021,0.037,0.029,0.061c0.432,0,0.793-0.045,1.152-0.121
			c0.215-0.047,0.48,0.041,0.639-0.059h0.242v-0.061c-0.412,0-1.445-0.041-1.695,0.118H47.88c0.024-0.032-0.002-0.004,0.029-0.028
			c0.118-0.14,0.358-0.068,0.573-0.121c0.338-0.078,0.896-0.217,1.185,0c0.08,0.051,0.031-0.006,0.031,0.092
			c0.079-0.002,0.139-0.002,0.182-0.029h0.211v-0.062c-0.274-0.068-0.684-0.189-0.911-0.334
			C49.05,81.199,49.107,81.088,48.878,81.068z"/>
		<path style="opacity:0.88;enable-background:new    ;" d="M67.927,19.855c0.353,0.473,0.746,0.961,1.396,1.125
			c0.731,0.182,1.09-0.678,1.362-1.004c0.285-0.332,0.908-0.414,1.123-0.85c0.08-0.156,0.025-0.469-0.029-0.605
			c-0.139-0.324-0.815-1.242-1.094-1.426c0.021-0.182,0.105-0.188,0.183-0.301c0.188,0.092,0.26,0.359,0.396,0.514
			c0.176,0.197,0.418,0.303,0.606,0.484c0.287,0.004,0.463-0.07,0.604-0.211h0.031c-0.072-0.203-0.34-0.344-0.482-0.486
			c-0.317-0.318-0.561-0.719-0.881-1.031v-0.029c-0.156,0.053-0.688,0.525-0.789,0.668c-0.19-0.074-0.299-0.279-0.455-0.396
			c-0.518-0.389-1.006-0.895-1.907-0.877c-0.113,0.086-0.281,0.088-0.429,0.15c-0.403,0.176-0.83,0.525-0.998,0.939
			c-0.188,0.461,0.002,1.143,0.15,1.484C67.018,18.701,67.505,19.285,67.927,19.855z M67.775,15.641
			c0.517,0.002,0.763,0.352,1.063,0.576c0.742,0.557,1.363,1.244,1.91,2.002c0.246,0.336,0.58,0.525,0.574,1.121
			c-0.095,0.088-0.119,0.172-0.273,0.211c-0.026,0.025-0.006,0.012-0.059,0.031c-0.431-0.713-1.048-1.311-1.546-1.973
			c-0.163-0.217-0.413-0.391-0.577-0.605c-0.277-0.367-0.606-0.664-0.912-1c-0.086-0.1-0.127-0.197-0.238-0.273
			C67.743,15.664,67.741,15.686,67.775,15.641z M67.018,16.064h0.121c0.151,0.229,0.413,0.389,0.575,0.605
			c0.453,0.602,1.009,1.129,1.455,1.73c0.276,0.371,0.584,0.721,0.851,1.092c0.137,0.189,0.239,0.432,0.428,0.574
			c-0.033,0.141-0.092,0.203-0.15,0.307c-0.537,0.125-0.803-0.227-1.092-0.518c-0.719-0.715-1.203-1.605-1.762-2.486
			C67.253,17.066,66.764,16.5,67.018,16.064z"/>
		<path style="opacity:0.88;enable-background:new    ;" d="M14.632,28.588h0.424c0.07-0.09,0.141-0.18,0.213-0.271
			c0.254-0.268,0.588-0.539,0.789-0.85h0.09v0.426c-0.232,0.207-0.592,0.531-0.697,0.848v0.244
			c-0.154,0.674,0.172,1.018,0.758,0.969c0.385-0.355,1.018-0.65,0.941-1.363c-0.033-0.025-0.004,0.006-0.031-0.029
			c-0.061,0.016-0.057,0.006-0.088,0.029c-0.223,0.115-0.594,1.094-1.033,0.82c-0.225,0.002-0.246-0.041-0.365-0.123
			c0.016-0.287,0.504-0.813,0.699-0.939c0.023-0.463,0.143-0.961,0.092-1.395c-0.031-0.012-0.063-0.02-0.092-0.031
			c-0.107-0.031-0.189,0.129-0.273,0.213c-0.221,0.223-0.496,0.459-0.668,0.729c-0.258-0.004-1.084-0.01-1.244,0.09h-0.092
			c0.076-0.195,0.662-0.84,0.486-1.121c-0.01-0.031-0.018-0.063-0.031-0.092c-0.553,0.002-1.219,0.984-1.395,1.395
			c-0.088,0.203-0.088,0.441-0.211,0.605v0.031c0.414-0.051,0.83-0.102,1.242-0.152C14.302,28.584,14.522,28.66,14.632,28.588z
			 M13.601,28.016h-0.184c0.086-0.334,0.412-0.715,0.82-0.73v0.152c-0.143,0.184-0.281,0.365-0.424,0.549
			C13.728,27.984,13.647,27.984,13.601,28.016z"/>
		<path style="opacity:0.88;enable-background:new    ;" d="M13.69,40.695v-0.033h-0.029c0.109-0.898-0.145-1.596-0.76-1.85
			c-0.344-0.061-0.688-0.123-1.031-0.182c-0.178-0.066-0.264-0.207-0.395-0.305c-0.045-0.291-0.104-0.617,0.121-0.787
			c-0.016-0.111-0.025-0.131-0.092-0.186v-0.027h-0.029c-0.104,0.176-0.188,0.377-0.242,0.605c-0.178,0.754,0.236,1.395,0.697,1.547
			c0.305,0.051,0.607,0.104,0.912,0.154c0.238,0.092,0.348,0.287,0.514,0.453c-0.006,0.393-0.383,0.436-0.697,0.334
			c-0.49-0.156-1.014-0.271-1.518-0.455c-0.131-0.047-0.254-0.129-0.424-0.15c-0.021,0.191-0.043,0.383-0.063,0.574
			c0.426,0.131,0.85,0.262,1.275,0.393c-0.018,1.072-0.439,2.359,0.092,3.188c0.064,0.016,0.107,0.027,0.15,0.061
			c0.6-0.041,0.723-0.521,1.031-0.848c0.262,0.627,0.066,1.727-0.516,1.879c-0.248,0.172-0.615-0.051-0.758-0.182
			c-0.496-0.461-0.602-1.16-0.789-1.941c-0.061-0.262,0.027-0.799-0.088-1.004c0.004-0.307,0.07-0.867-0.092-1.027v-0.031
			l-0.063,0.002c-0.006,1.889-0.105,4.805,1.367,5.217c0.537,0.148,0.834-0.205,1-0.455c0.604-0.898,0.434-2.643-0.15-3.396
			c-0.262,0.027-0.635,0.643-0.758,0.846c-0.064-0.01-0.057-0.006-0.092-0.027c-0.068-0.033-0.064-0.053-0.123-0.094
			c-0.045-0.715,0.1-1.379,0.123-2.061c0.801,0.08,1.488,0.533,2.307,0.574c-0.002-0.141,0-0.332,0.057-0.422
			c-0.006-0.07-0.006-0.086-0.029-0.123C14.489,40.846,13.872,40.701,13.69,40.695z"/>
		<polygon style="opacity:0.88;enable-background:new    ;" points="23.241,68.508 23.249,68.516 23.245,68.51 		"/>
		<path style="opacity:0.88;enable-background:new    ;" d="M20.761,17.338h0.09c-0.121,0.365-0.604,0.873-0.818,1.213
			c-0.119,0.191-0.193,0.436-0.363,0.576c0.029,0.033-0.002,0,0.031,0.029c0.066,0.039,0.623-0.105,0.729-0.182
			c0.064,0.012,0.057,0.01,0.092,0.029c0.033,0.053-0.371,0.762-0.457,0.852v0.031c0.15-0.02,0.385-0.043,0.486-0.123
			c0.295-0.229,0.361-0.719,0.576-1.033c-0.012-0.049-0.021-0.1-0.031-0.15c-0.17-0.029-0.521,0.016-0.666,0.123h-0.031
			c0.07-0.363,0.666-1.033,0.879-1.336c0.35-0.496,0.676-0.973,1.031-1.455c0.186-0.254,0.447-0.479,0.637-0.729
			c0.213-0.281,0.436-0.652,0.729-0.85v-0.061h-0.121c-0.143,0.105-0.518,0.168-0.697,0.271c0.023,0.104,0.016,0.076,0.09,0.119
			c-0.105,0.297-0.459,0.518-0.637,0.762c-0.285,0.383-0.602,0.742-0.881,1.123c-0.094,0.125-0.156,0.322-0.271,0.426
			c-0.182,0.156-0.701,0.141-0.908,0.301h-0.063c0.043-0.254,0.695-1.068,0.881-1.242v-0.031c-0.314,0.043-0.555,0.211-0.76,0.363
			c0.035,0.068,0.029,0.055,0.094,0.092c-0.113,0.182-0.277,0.318-0.395,0.484c-0.152,0.213-0.236,0.461-0.395,0.668
			c0.01,0.029,0.021,0.061,0.029,0.092C19.833,17.682,20.642,17.428,20.761,17.338z"/>
		<path style="opacity:0.88;enable-background:new    ;" d="M25.876,71.645c0.043,0.043,0.082,0.09,0.125,0.136
			c-0.006-0.009-0.012-0.015-0.012-0.015L25.876,71.645z"/>
		<path style="opacity:0.88;enable-background:new    ;" d="M17.425,27.986c0.473-0.488,1.471-1.705,1.455-2.609
			c-0.049-0.049-0.09-0.125-0.121-0.182c-0.189-0.047-0.432-0.066-0.697-0.061c-0.068,0.244-0.213,0.453-0.305,0.666
			c-0.205,0.471-0.389,0.939-0.576,1.396c-0.156,0.379-0.256,0.992-0.484,1.301v0.063C17.015,28.504,17.231,28.184,17.425,27.986z
			 M17.546,27.016c0.18-0.432,0.303-0.857,0.516-1.242c0.115,0,0.203,0.01,0.271,0.059c0.072,0.039,0.021-0.014,0.061,0.061
			c0.061,0.15-0.137,0.391-0.211,0.518c-0.139,0.225-0.217,0.451-0.365,0.666c-0.137,0.195-0.354,0.348-0.486,0.547h-0.029
			C17.339,27.393,17.464,27.205,17.546,27.016z"/>
		<path style="opacity:0.88;enable-background:new    ;" d="M78.936,31.016c-0.066,1.057-0.974,1.391-1.938,0.973
			c-0.688-0.295-1.238-0.951-1.67-1.518c-0.146-0.189-0.369-0.35-0.517-0.549c-0.135-0.182-0.233-0.385-0.395-0.543v-0.031h-0.061
			c0.082,0.326,0.271,0.623,0.393,0.912c0.516,1.176,1.168,2,2.158,2.699c0.465,0.328,1.242,0.846,1.912,0.363
			c1.168-0.844,0.6-3.978,0.119-5.156c-0.125-0.311-0.226-0.553-0.365-0.818c-0.227-0.441-0.469-1.086-1.121-1.094
			c-0.16,0.139-0.332,0.248-0.426,0.457c-0.596,1.348,0.627,2.871,1.184,3.611C78.404,30.58,78.639,30.867,78.936,31.016z
			 M77.729,27.709h0.149c0.297,0.311,0.572,0.607,0.761,1.031c0.1,0.229,0.114,0.617,0.239,0.822
			c-0.019,0.051-0.006,0.029-0.028,0.061c-0.078,0.078-0.412-0.322-0.486-0.395C78.023,28.889,77.346,28.295,77.729,27.709z"/>
		<path style="opacity:0.88;enable-background:new    ;" d="M15.812,60.717c0.188,0.096,0.225,0.523,0.303,0.727
			c0.164,0.431,0.4,0.99,0.791,1.185v0.031h0.064c-0.051-0.345-0.244-0.652-0.365-0.939c-0.27-0.657-0.477-1.348-0.699-2.004
			c-0.125-0.383-0.213-0.762-0.334-1.123c-0.061-0.188-0.045-0.401-0.15-0.549v-0.09c0.205,0.075,0.52,0.067,0.697,0.182h0.154
			c-0.033-0.155-0.066-0.422-0.154-0.547c-0.092-0.147-0.68-0.147-0.848-0.271c-0.24-0.188-0.467-0.727-0.639-1.002
			c-0.428-0.68-0.998-1.403-1.637-1.883c-0.342-0.25-0.578-0.512-1.186-0.512c-0.068,0.049-0.141,0.1-0.211,0.15
			c-0.137,0.604,0.107,1.723,0.453,2.002v0.057c-0.145-0.037-0.301-0.115-0.395-0.207h-0.029c0.006,0.172,0.039,0.396,0.121,0.514
			c0.037,0.148,0.279,0.271,0.424,0.304c0.191,0.795,0.455,1.61,0.73,2.338c0.221,0.582,0.332,1.137,0.572,1.694
			c0.121,0.275,0.402,0.476,0.488,0.761h0.09c-0.07-0.255-0.211-0.494-0.303-0.728c-0.277-0.67-0.5-1.383-0.73-2.061
			c-0.148-0.445-0.252-0.881-0.393-1.307c-0.055-0.158-0.039-0.326-0.121-0.453v-0.033c0.205,0.039,0.33,0.146,0.484,0.215
			c0.354,0.152,0.691,0.211,1.063,0.363c0.27,0.111,0.611,0.268,0.941,0.303c0.037,0.275,0.195,0.998,0.334,1.184v0.092
			c-0.461-0.315-0.453-0.766-1.275-0.696c-0.041,0.049-0.098,0.09-0.15,0.119c-0.076,0.188-0.08,0.495,0,0.696
			c0.195,0.496,0.82,1.529,1.334,1.672C15.435,61.041,15.722,60.867,15.812,60.717z M15.026,57.258
			c-0.32-0.025-0.592-0.15-0.85-0.24c-0.686-0.258-1.305-0.473-1.91-0.762c-0.072-0.275-0.582-1.26-0.303-1.605
			c0.02-0.032,0.039-0.063,0.059-0.094c0.064-0.014,0.061-0.01,0.094-0.031c0.934,0.111,1.871,1.25,2.334,1.884
			c0.18,0.243,0.328,0.61,0.576,0.789V57.258z M14.237,59.533c0.004-0.301,0.117-0.301,0.242-0.457
			c0.07-0.008,0.086-0.008,0.121-0.029c0.469,0.006,0.578,0.213,0.852,0.396c0.045,0.176,0.07,0.254,0.059,0.451
			c-0.09,0.112-0.18,0.225-0.271,0.334c-0.08,0.059-0.17,0.082-0.242,0.151C14.474,60.365,14.458,59.855,14.237,59.533z"/>
		<path style="opacity:0.88;enable-background:new    ;" d="M63.925,77.611c-0.182,0.16-0.618,0.174-0.815,0.332h-0.033
			c0.078-0.113,0.223-0.162,0.305-0.271c0.059-0.08,0.08-0.174,0.15-0.241c-0.016-0.063-0.008-0.06-0.029-0.091v-0.063
			c-0.887-0.159-2.365,0.603-2.82,1.005c-0.121,0.102-0.19,0.256-0.307,0.362c0.002,0.086,0.012,0.131,0.031,0.183
			c0.539,0.037,1.545-0.293,1.666-0.728c0.023-0.018,0.01,0,0-0.029V78.01c-0.365-0.021-0.861,0.055-1.09,0.271h-0.029
			c0.197-0.303,0.938-0.572,1.332-0.699c0.133-0.041,0.424-0.113,0.549-0.029c0.027,0.012,0.059,0.021,0.09,0.029
			c-0.072,0.303-0.504,0.643-0.789,0.729v0.063c0.467-0.108,0.893-0.319,1.305-0.488c0.281-0.112,0.603-0.143,0.849-0.303
			c0.176-0.112,0.772-0.924,0.817-1.151C64.402,76.539,64.35,77.229,63.925,77.611z M61.527,78.215v0.096
			c-0.059,0.035-0.1,0.115-0.151,0.146c-0.158,0.096-0.369,0.082-0.519,0.182c-0.069-0.006-0.084-0.006-0.119-0.027H60.71
			C60.792,78.352,61.292,78.232,61.527,78.215z"/>
		<path style="opacity:0.88;enable-background:new    ;" d="M81.216,44.547c0.063,0.168,0.193,0.445,0.334,0.545
			c0.066,0.051,0.103,0.031,0.15,0.09c1.004,0.09,1.413-1.639,1.004-2.637c-0.072-0.172-0.396-0.68-0.697-0.484h-0.063
			c0.021-0.053,0.01-0.031,0.033-0.063c-0.002-0.145-0.019-0.193-0.062-0.273c-0.06-0.01-0.117-0.018-0.185-0.027
			c-0.026,0.023-0.004,0.012-0.057,0.027c0.02,0.186,0.084,0.189,0.09,0.396C81.273,42.566,80.854,43.639,81.216,44.547z
			 M81.546,42.938c0.067-0.16,0.205-0.266,0.306-0.393c0.063-0.012,0.057-0.006,0.09-0.031c0.229,0,0.295,0.043,0.426,0.121
			c0.23,0.547,0.266,1.496-0.121,1.914c-0.059,0.066-0.176,0.088-0.24,0.15C81.368,44.65,81.316,43.492,81.546,42.938z"/>
		<polygon style="opacity:0.88;enable-background:new    ;" points="49.825,66.783 49.825,66.785 49.827,66.785 		"/>
		<path style="opacity:0.88;enable-background:new    ;" d="M83.7,44.365v-0.482c-0.074-0.35-0.043-0.811-0.119-1.152
			c-0.146-0.678-0.017-1.479-0.271-2.035c-0.15-0.035-0.302-0.064-0.515-0.059c-0.08,0.078-0.137,0.119-0.123,0.211
			c0.063,0.275,0.42,0.332,0.517,0.605c0.014,0.135,0.02,0.266,0.031,0.396c0.104,0.43,0.084,0.986,0.18,1.426v0.363
			c0.049,0.221,0.123,0.793,0.061,0.973c-0.105,0.314-0.447,0.598-0.664,0.818c-0.578,0.58-1.26,1.314-2.277,1.426
			c-0.02,0.051-0.01,0.029-0.033,0.061c0.019,0.379,0.367,0.301,0.607,0.453c0.063-0.01,0.123-0.018,0.182-0.031
			c0.095-0.055,0.146-0.184,0.213-0.271c0.154-0.2,0.435-0.304,0.574-0.516h0.031c0.002,0.924,0.023,1.965,0.031,2.852h0.092
			c0.207-0.899,0.191-2,0.18-3.097c0.4-0.371,0.654-0.912,1.063-1.271v-0.061h0.033c0.004,0.961,0.026,1.939,0.026,2.912
			c0,0.311-0.078,1.057,0,1.184v0.183h0.062c0.082-0.328,0.104-0.785,0.183-1.151v-0.517c0.09-0.408,0.09-1.199,0.002-1.607
			C83.654,45.461,83.807,44.84,83.7,44.365z"/>
		<path style="opacity:0.88;enable-background:new    ;" d="M89,0H5C2.238,0,0,2.238,0,5v84c0,2.762,2.238,5,5,5h84
			c2.762,0,5-2.238,5-5V5C94,2.238,91.762,0,89,0z M85.27,38.514c0.051-0.053,0.086-0.152,0.076-0.404
			c0.135,0.988,0.229,1.98,0.286,2.977c-0.065,0.146-0.094,0.463-0.094,0.463s-0.052,0.359-0.119,0.35
			c-0.017-0.004-0.043-0.004-0.073-0.016c-0.097-0.049-0.242-0.242-0.357-1.066c-0.154-1.1-0.121-2.26-0.121-2.26
			s-0.033-0.121,0.033-0.145c0.07-0.023,0.146,0.078,0.146,0.078S85.148,38.633,85.27,38.514z M84.271,33.232
			c0,0.002,0.002,0.004,0.002,0.006l0.14,0.174c0.164,0.619,0.299,1.244,0.433,1.871c-0.181-0.738-0.379-1.42-0.539-1.939
			c0.032,0.109,0.065,0.217,0.1,0.334c-0.047-0.156-0.094-0.313-0.137-0.445L84.271,33.232L84.271,33.232z M84.159,33.09l0.014,0.02
			l-0.127-0.143l0.111,0.121C84.157,33.088,84.157,33.09,84.159,33.09z M82.604,28.246c0.008-0.002,0.004-0.01,0.01-0.012
			c0.589,1.369,1.099,2.766,1.515,4.17c-0.032,0-0.063,0-0.101,0.004c-0.012,0.002-0.018,0.008-0.026,0.01
			c-0.004-0.008-0.006-0.01-0.006-0.01s-0.238-0.701-0.791-2.098c-0.486-1.225-0.621-1.75-0.646-1.863
			c-0.006-0.014-0.006-0.021-0.006-0.021S82.52,28.273,82.604,28.246z M78.527,21.121c0.033-0.023,0.054-0.051,0.078-0.074
			c0.658,0.936,1.275,1.904,1.851,2.896c-0.067,0.012-0.125,0.1,0.019,0.473c0.088,0.234,0.104,0.32,0.088,0.334
			c-0.029,0.02-0.146-0.156-0.146-0.156c-0.711-0.9-2.176-3.293-2.176-3.293l-0.003-0.002h-0.002l-0.139-0.092l0.141,0.092
			C78.333,21.25,78.441,21.189,78.527,21.121z M77.831,21.48c0.021-0.008,0.032-0.014,0.049-0.021
			c0.045-0.02,0.088-0.037,0.127-0.057c0,0,0.011-0.002,0.029-0.01l0.006,0.01c0.783,1.262,2.183,3.293,2.183,3.293
			s0.567,0.734,0.694,0.742c0.125,0.008-0.063-0.568-0.063-0.568s-0.063-0.232-0.013-0.264c0.525,0.945,1.009,1.91,1.451,2.889
			l-0.002,0.004c0,0-0.11,0.055-0.11,0.254c0,0.385,0.379,1.27,0.379,1.27s0.801,2.031,1.307,3.449
			c-0.162,0.09-0.26,0.23-0.615,0.289c-0.453,0.072-0.977,0.236-1.49,1.012c-0.154,0.232-0.209,0.48-0.221,0.715
			c0,0.006-0.004,0.008-0.004,0.01c0,0.018,0.004,0.035,0,0.047c0,0.098,0.006,0.188,0.02,0.273c0,0.027,0.002,0.051,0.008,0.076
			c0.013,0.074,0.027,0.141,0.043,0.203c0.009,0.025,0.015,0.055,0.021,0.072c0.002,0.006,0.002,0.008,0.004,0.016
			c0.063,0.199,0.132,0.33,0.132,0.33s0.274,0.455,0.407,0.686c0.134,0.236,0.815,1.699,0.026,2.768c0,0-0.422,0.492-1.168,0.658
			c-0.659,0.145-0.491-0.625-0.561-1.039c0,0-0.096-1.748-0.945-2.752c-0.75-0.879-2.104,0.684-2.782,1.203
			c-0.63,0.48-2.474,2.385-5.121,3.773l-0.097-1.271c0,0-0.063-0.686-0.434-1.748c-0.75-2.168-1.488-3.16-1.488-3.16
			s-0.297-0.639-0.951-0.898c-0.164-0.068-0.348-0.113-0.562-0.113c-1.018,0-1.096,0.934-1.096,0.934s-0.238,0.74-0.631,0.969
			c-0.334,0.193-1.238,0.719-1.859,0.414c-0.088-0.047-0.17-0.107-0.244-0.189c-0.119-0.129-0.215-0.264-0.314-0.4
			c-0.114-0.152-0.219-0.309-0.311-0.469c-0.322-0.557-0.52-1.143-0.57-1.711c-0.08-0.883,0.281-1.24,0.281-1.24
			s0.074-0.227,1.236-0.227c1.305,0,1.543-0.402,1.543-0.402s0.25-0.227,0.229-0.738c-0.02-0.51-0.219-1.607-0.596-2.301
			c-0.051-0.098-0.125-0.211-0.201-0.324c-0.289-0.436-0.711-0.973-1.092-1.412l-0.701-0.129l0.701,0.127
			c0.455-0.17,1.078-0.416,1.754-0.719c1.375-0.621,2.033-1.141,2.666-1.498c0,0,1.395-0.861,2.213-0.838
			c0,0,0.191-0.008,0.207,0.246c0.018,0.252,0.08,0.623,0.168,0.838c0.084,0.217,0.563,1.398,2.09,1.572
			c0.193,0.021,0.371,0.023,0.535,0.012c0.09-0.008,0.168-0.025,0.252-0.041c0.066-0.012,0.139-0.018,0.201-0.031
			c0.115-0.031,0.217-0.07,0.314-0.113c0.02-0.008,0.045-0.014,0.061-0.023c0.104-0.045,0.193-0.1,0.275-0.152
			c0.01-0.004,0.021-0.01,0.029-0.014c0.354-0.238,0.518-0.498,0.518-0.498s0.525-0.801-0.379-1.758c0,0-0.734-0.789-0.758-0.85
			c0,0-0.045-0.07,0.033-0.131c0.021-0.018,0.049-0.031,0.092-0.047c0.131-0.035,1.043-0.293,1.92-0.576
			c0.408-0.131,0.807-0.27,1.113-0.391C77.79,21.496,77.812,21.488,77.831,21.48z M72.971,46.492
			c0.403,0.834,1.305,0.922,1.956,0.76c0.652-0.166,0.865-0.521,1.228-1.307c0.359-0.777,0.555-0.834,0.555-0.834
			s0.145-0.205,0.807-0.131c0.66,0.078,0.803,0.543,0.803,0.543s0.382,0.902,0.304,1.846c-0.072,0.945-0.279,1.371-0.496,1.703
			c-0.219,0.342-1.351,0.229-1.351,0.229s-1.942-0.217-2.116,2.119c-0.175,2.336,0.606,3.951,0.606,3.951
			c0.285,0.621,0.574,0.942,0.816,1.117c0.236,0.176,0.463,0.399,0.463,0.399s0.045,0.037,0.104,0.113h-0.01
			c-1.387,1.125-1.795,1.486-2.897,2.266c0,0-1.263,0.945-2.638,1.685c-1.385,0.746-3.006,0.655-3.006,0.655
			s-0.44-0.047-0.227-0.366c0.211-0.318,0.486-1.093,0.592-1.486c0.107-0.394,0.316-1.394-0.486-1.713
			c-0.803-0.313-2.312,0.149-2.312,0.149s-3.469,0.925-4.887,2.478c-1.373,1.511-0.219,2.185-0.219,2.185s0.539,0.373,1.062,0.557
			c0.494,0.178,0.395,0.336,0.273,0.428c0,0-1.552,0.988-3.383,1.514c0,0-2.503,0.767-4.937,0.924
			c-2.388,0.152-3.414,0.218-3.441,0.218c-0.26-0.511-0.53-0.974-0.53-0.974s-0.281-0.432-0.422-1.047
			c-0.115-0.518-0.127-1.156,0.235-1.787c0.793-1.383,2.097-1.799,2.097-1.799s1.149-0.256,2.297,0.01
			c1.088,0.248,1.635-0.166,1.635-0.166s0.375-0.164,0.645-0.805c0.023-0.057,0.043-0.127,0.064-0.189
			c0.02-0.053,0.041-0.106,0.059-0.17c0.037-0.137,0.07-0.286,0.094-0.452c0.201-1.324-0.01-3.787-1.774-4.275
			c-1.769-0.483-2.705,0.433-2.705,0.433s-0.953,1.049-1.261,1.203c-0.311,0.153-0.784,0.434-0.784,0.434s-0.664,0.396-1.115,0.496
			c-0.278,0.061-1.226-1.178-1.437-2.236c-0.016-0.07-0.035-0.145-0.043-0.213c-0.088-0.887-0.257-1.623-0.25-3.186
			c0.002-0.224,0.006-0.461,0.016-0.718c0-0.004,0-0.008,0-0.014c0.313-0.017,0.631-0.033,0.95-0.045
			c2.738-0.103,4.097-0.429,5.552-0.752c1.455-0.33,3.502-1.521,3.81-1.744c0.266-0.199,0.789-0.438,1.002-1.168
			c0.021-0.076,0.034-0.166,0.051-0.254c0.004-0.029,0.012-0.052,0.016-0.08c0-0.002,0.004-0.006,0.004-0.008
			c0.127-0.992-1.047-1.654-1.047-1.654s-0.934-0.492-1.131-0.711c-0.098-0.109-0.104-0.217-0.082-0.297
			c0.021-0.076,0.064-0.127,0.064-0.127s0.526-1.141,2.221-1.805c1.688-0.67,2.828-0.852,3.539-0.926
			c0.715-0.076,0.955,0.182,1.055,0.303c0.098,0.121,0.098,0.371,0.016,0.627c-0.078,0.238-0.342,0.799-0.496,1.07
			c-0.147,0.275-0.399,0.934-0.242,1.244c0.16,0.311,0.648,0.457,1.275,0.34c0.629-0.113,2.289-0.582,3.746-1.188
			c1.459-0.609,3.891-1.799,3.891-1.799s0.008-0.002,0.017-0.01l0.002-0.006c0.002,0,0.002,0,0.004,0l0.063-0.541
			c0,0.002,0,0.006,0.002,0.01l-0.062,0.547C71.624,43.662,72.577,45.672,72.971,46.492z M77.021,59.684
			c-0.219,1.359-0.545,2.146-0.76,2.551c-0.039,0.07-0.078,0.144-0.117,0.203c-0.016,0.025-0.022,0.035-0.035,0.056
			c-0.034,0.053-0.073,0.102-0.112,0.149c-0.037,0.051-0.113,0.144-0.205,0.244c-0.047,0.049-0.09,0.1-0.135,0.141
			c-0.021,0.017-0.037,0.031-0.058,0.05c-0.049,0.049-0.104,0.103-0.166,0.151c-0.016,0.019-0.024,0.027-0.041,0.041
			c-0.291,0.248-0.656,0.48-1.051,0.527c-0.857,0.102-1.787,0.092-2.65,0.916c-0.012,0.014-0.028,0.023-0.041,0.033
			c-0.026,0.027-0.059,0.062-0.088,0.092c-0.014,0.016-0.03,0.029-0.047,0.043c-0.006,0.008-0.008,0.016-0.014,0.02
			c-0.084,0.095-0.17,0.209-0.25,0.332c-0.701,1.052-0.539,2.216-0.539,2.216s0.09,0.881,1.033,0.639
			c0.943-0.237,1.908-0.963,2.637-1.543c0.725-0.576,0.279,0.192,0.279,0.192c-0.639,1.253-1.855,2.503-1.855,2.503
			s-0.424,0.366-1.356,1.684c-0.242,0.343-0.443,0.646-0.613,0.912c0,0-0.006,0.004-0.008,0.006
			c-0.953,0.513-2.326,1.193-3.188,1.545c0.041-0.014,0.09-0.034,0.133-0.051c-0.045,0.019-0.092,0.039-0.133,0.058
			c-0.459,0.188-0.818,0.311-1.08,0.385c0.008-0.004,0.012-0.006,0.021-0.01c-0.279,0.08-0.442,0.1-0.494,0.075
			c-0.002-0.002-0.01-0.002-0.01-0.002c-0.009-0.01-0.007-0.022,0-0.034c0-0.005-0.002-0.005,0-0.011
			c0.1-0.144,0.354-0.354,0.354-0.354s0.307-0.307,0.307-0.616c0,0,0.025-0.111-0.117-0.188c-0.141-0.078-0.449-0.123-1.113,0.016
			c-0.326,0.068-0.641,0.16-0.936,0.261c-0.006,0.002-0.016,0.002-0.023,0.008c-0.396,0.134-0.756,0.279-1.025,0.399
			c0.006,0,0.006,0,0.008,0c0.027-0.012,0.049-0.021,0.076-0.034c-0.051,0.021-0.075,0.034-0.075,0.034h-0.001
			c-0.33,0.149-0.547,0.265-0.547,0.265s-0.67,0.312-1.135,0.674l0.014-0.016c-0.018,0.016-0.03,0.024-0.045,0.041
			c-0.059,0.045-0.11,0.092-0.161,0.141c-0.009,0.011-0.019,0.019-0.027,0.029c-0.06,0.06-0.106,0.119-0.146,0.18
			c-0.006,0.011-0.012,0.021-0.018,0.025c-0.033,0.063-0.053,0.125-0.055,0.184c0,0.005,0,0.007,0,0.009
			c0.002,0.065,0.018,0.125,0.066,0.18c0,0,0.088,0.146,0.485,0.271c0.045,0.017,0.065,0.035,0.076,0.056
			c0.004,0.004,0.004,0.01,0.004,0.018c0,0.012-0.008,0.025-0.017,0.035c-0.008,0.016-0.016,0.027-0.032,0.039
			c-0.007,0.004-0.017,0.012-0.021,0.018c-0.021,0.014-0.043,0.027-0.067,0.043c0.001,0,0.002,0,0.003,0l-0.01,0.006
			c0.002-0.002,0.004-0.004,0.007-0.006c-0.228,0.129-0.647,0.258-0.647,0.258c-1.049,0.344-1.852,0.5-2.867,0.711
			c-1.055,0.215-1.965,0.414-2.578,0.552l-0.002-0.005l0.008-0.002c-0.065-0.248-0.163-0.493-0.27-0.729
			c-0.014-0.031-0.027-0.057-0.041-0.086c-0.051-0.107-0.102-0.209-0.156-0.307c-0.01-0.021-0.02-0.041-0.028-0.06
			c-0.062-0.106-0.121-0.211-0.177-0.305c-0.024-0.041-0.047-0.076-0.069-0.113c-0.024-0.045-0.052-0.084-0.076-0.118
			c-0.065-0.107-0.129-0.205-0.166-0.263c-0.237-0.387-0.64-0.606-1.832-0.407c-1.192,0.198-2.598,0.795-2.598,0.795
			s-1.449,0.766-2.527,0.618c-0.272-0.032-0.487-0.131-0.659-0.26c-0.519-0.383-0.642-1.063-0.634-1.315
			c0.012-0.343,0.232-0.644,0.797-0.863c0.565-0.221,1.892-0.521,3.82-0.619c1.935-0.1,2.653-1.359,2.653-1.359
			c0.22-0.32,0.597-0.984-0.041-1.555c-0.092-0.082-0.203-0.162-0.34-0.236c-0.674-0.379-0.936-0.461-1.164-0.566
			c-0.082-0.039-0.166-0.082-0.258-0.143c-0.01-0.006-0.016-0.008-0.022-0.014c-0.017-0.01-0.035-0.023-0.052-0.035
			c-0.039-0.029-0.078-0.053-0.125-0.09c-0.131-0.1-0.264-0.205-0.391-0.314c-0.391-0.338-0.746-0.738-0.914-1.242
			c-0.018-0.065-0.049-0.151-0.078-0.227l-0.391-0.254l-0.256-0.17c0,0,0,0-0.002,0v-0.002l0.004-0.006l0.008,0.006
			c-0.002,0-0.004,0.002-0.008,0.002l0.645,0.424c0.564-0.043,1.295-0.1,1.947-0.127c1.295-0.064,3.326-0.365,4.508-0.625
			c1.18-0.262,2.967-0.809,4.285-1.494c1.324-0.684,1.389-1.164,1.389-1.164s0.099-0.143,0.035-0.346
			c-0.035-0.127-0.129-0.27-0.34-0.424c-0.551-0.402-0.793-0.293-1.281-0.787c-0.061-0.059-0.098-0.127-0.121-0.191
			c-0.147-0.473,0.549-1.041,0.549-1.041s0.47-0.664,3.08-1.67c2.615-1.008,3.054-0.668,3.188-0.557
			c0.031,0.025,0.06,0.07,0.078,0.121c0.058,0.16,0.056,0.404,0.017,0.586c-0.056,0.244-0.382,1.117-0.558,1.576
			c-0.088,0.231-0.146,0.506-0.09,0.738c0.051,0.229,0.207,0.42,0.557,0.495c0.709,0.146,1.699-0.008,2.63-0.342
			c2.215-0.791,2.879-1.76,6.541-4.418c0.01-0.008,0.016-0.012,0.022-0.021l0.014-0.494c0,0,0.002,0,0.005,0
			c0,0.003,0.004,0.007,0.004,0.013l-0.017,0.481C77.075,57.963,77.191,58.656,77.021,59.684z M39.226,70.438
			c0.586,0.66,1.199,0.945,1.199,0.945s0.361,0.156,0.355,0.256c-0.006,0.127-0.01,0.238-0.281,0.394c0,0-1.066,0.625-3.15,0.659
			c-2.078,0.035-2.996,0.017-3.605-0.532c-0.506-0.453,0.125-1.414,0.125-1.414s0.252-0.47,0-1.113
			c-0.254-0.643-1.699-0.655-1.699-0.655l-2.006-0.103c-2.373-0.063-5.506-0.33-6.902-0.502c0,0-0.008,0-0.023-0.004v0.002
			L23.2,68.309c0,0-1.439-2.588-1.285-3.539c0,0,0.039-0.481,0.65-0.791c0.088-0.043,0.188-0.082,0.301-0.117
			c0.625-0.192,0.543,0.416,2.385,0.748c0,0,0.924,0.242,1.547-0.151c0.191-0.121,0.355-0.301,0.455-0.572
			c0.414-1.155-0.434-2.604-0.434-2.604s-1.111-2.035-2.486-2.113h-0.002c-0.01,0-0.016,0-0.021,0
			c-0.697-0.028-0.521,0.451-1.604,0.709c0,0-1.471,0.144-1.934-0.737c-0.561-1.066-0.779-2.277-0.779-3.082c0-0.029,0-0.05,0-0.072
			c0.014-0.506,0.031-0.682,0.057-0.822c0.014-0.051,0.025-0.107,0.041-0.18c0.018-0.078,0.051-0.183,0.088-0.316
			c0.037-0.139,0.076-0.307,0.102-0.521v-0.01c0.621-0.068,1.623-0.176,2.773-0.301c1.939-0.209,3.242-0.416,4.445-0.234
			c1.207,0.181,1.594,1.121,1.594,1.121s0.021,0.062,0.008,0.144c-0.016,0.077-0.063,0.18-0.197,0.264
			c-0.268,0.177-0.576,0.422-0.727,0.685c0,0.004-0.002,0.004-0.004,0.006c-0.018,0.033-0.037,0.068-0.053,0.106
			c-0.129,0.294-0.211,0.8,0.174,1.455c0.439,0.736,1.643,1.22,2.668,1.099c1.021-0.121,2.557-0.515,3.465-0.748
			c0.742-0.197,1.418-0.521,1.756-0.998c0.113-0.158,0.193-0.334,0.221-0.529c0.111-0.773-1.18-1.76-1.18-1.76
			s-0.617-0.469-0.693-0.576c-0.02-0.025-0.023-0.051-0.02-0.07c0.016-0.047,0.09-0.072,0.09-0.072s0.729-0.178,1.041-0.317
			c0.309-0.146,1.166-0.494,2.57-0.937c1.404-0.438,4.297-0.953,4.297-0.953s1.6-0.258,3.594-0.418l0.008-0.006
			c0.002-0.004,0.002-0.004,0.006-0.004l0.244-0.283l0.076-0.084l-0.326,0.377c-0.006,0.188-0.012,0.381-0.02,0.58
			c-0.109,2.976,0.553,4.498,0.553,4.498c0.375,0.814,0.784,1.404,1.338,1.775c0.551,0.375,1.303,0.121,1.545,0
			s0.916-0.432,1.492-0.793c0.573-0.367,0.555-0.521,1.246-1.162c0.698-0.641,1.594-0.463,1.594-0.463s0.848,0.021,1.334,1.006
			c0.488,0.982,0.389,2.385,0.266,2.895c-0.121,0.506-0.342,0.838-0.816,0.748c-0.475-0.086-1.26-0.166-1.547-0.176
			c-0.287-0.012-1.098-0.037-1.834,0.154c-0.719,0.188-1.691,0.707-2.619,2.213c-0.719,1.162-0.367,2.307-0.199,2.76
			c0.13,0.355,0.484,0.85,0.802,1.453l0.578,0.195l-0.576-0.193c-0.983,0.119-2.65,0.357-4.291,0.752
			c-2.012,0.49-3.928,0.881-5.293,1.762C39.659,69.102,38.64,69.781,39.226,70.438z M44.28,37.367
			c-0.148-1.072-0.191-1.324-1.137-4.576c1.242-0.17,2.25-0.326,3.393-0.553c0.769-0.15,1.598-0.324,2.604-0.557
			c0,0,2.332-0.416,2.814-1.27c0.283-0.498,0.789-1.176-0.031-1.861c0,0-0.002-0.002-0.004-0.004c0,0-0.096-0.123-0.605-0.24
			c-0.217-0.049-0.407-0.092-0.594-0.148c-0.252-0.074-0.49-0.172-0.738-0.352c-0.434-0.309-0.42-0.666-0.42-0.666
			s-0.039-0.34,0.66-0.732c0,0,0.365-0.27,1.094-0.578c0.242-0.102,0.527-0.209,0.853-0.313c1.297-0.408,2.797-0.227,2.797-0.227
			s0.627,0.068,0.522,0.492c-0.104,0.428-0.463,1.139-0.477,1.502c-0.01,0.221-0.002,0.461,0.158,0.682
			c0.053,0.072,0.127,0.141,0.215,0.209c0.094,0.07,0.203,0.135,0.346,0.193c0.447,0.188,1.017,0.219,1.379,0.219
			c0.218,0,0.361-0.012,0.361-0.012s1.062-0.057,2.799-0.613c1.088-0.352,2.179-0.732,2.838-0.967
			c0.39-0.135,0.631-0.223,0.662-0.234c0.008-0.002,0.008-0.002,0.017-0.006l0.004,0.006c1.522,1.492,1.799,3.312,1.799,3.312
			s0.207,0.717-0.215,0.77c-0.369,0.049-1.229,0.055-1.229,0.055s-0.324,0.035-0.859,0.141c-0.527,0.109-0.865,0.676-0.939,1.066
			c-0.076,0.391-0.307,1.465,0.6,3.15c0.898,1.684,2.039,1.605,2.039,1.605c0.988-0.088,1.293-0.26,1.869-0.652
			c0.56-0.379,0.814-1.225,0.847-1.387c0.034-0.166,0.11-0.326,0.237-0.326c0.136,0,0.09,0,0.396-0.043
			c0.308-0.045,0.533,0.172,0.783,0.682c0.161,0.33,1.03,1.76,1.28,2.607c0.252,0.846,0.47,1.693,0.488,2.453
			c0.01,0.299,0.051,0.643,0.1,0.947l0.047,0.068l0.193,0.281c0,0,0,0,0,0.002v0.002l-0.193-0.285l-0.047-0.066c0,0,0,0,0-0.002
			l-0.006-0.008c-1.272,0.635-4.155,2.035-6.035,2.695c0,0-1.438,0.582-2.024,0.6c0,0-0.129,0.004-0.024-0.137
			c0.102-0.143,0.211-0.246,0.391-0.566c0.176-0.32,0.494-1.041,0.494-1.783c0-0.744-0.859-1.471-2.057-1.342
			c-1.193,0.129-2.339,0.461-3.718,0.992c-1.375,0.531-2.562,1.654-2.721,2.588c-0.16,0.932,0.848,1.473,0.848,1.473
			s1.14,0.576,1.283,0.885c0.146,0.314,0.039,0.602,0.039,0.602s-0.101,0.312-0.603,0.601c-0.496,0.286-1.854,0.983-1.854,0.983
			s-1.695,0.937-4.268,1.16c0,0-2.344,0.199-3.689,0.268c-0.018,0.002-0.033,0.002-0.049,0.002c0.061-1.725-0.15-3.067-0.508-4.069
			c-0.119-0.332-0.256-0.629-0.404-0.885c-0.615-1.082-1.623-1.66-2.119-1.902c-0.496-0.242-1.645-0.352-2.432-0.066
			c-0.781,0.289-0.947,0.52-1.234,1.02c-0.289,0.498-0.641,0.463-0.641,0.463s-1.049,0.021-1.424-1.549
			c-0.008-0.029-0.016-0.051-0.023-0.084c-0.051-0.242-0.08-0.453-0.107-0.664c-0.006-0.043-0.02-0.1-0.023-0.139
			c-0.016-0.141-0.016-0.254-0.02-0.377c-0.006-0.096-0.018-0.201-0.018-0.289c0.008-1.201,0.443-1.623,0.443-1.623
			s0.242-0.367,1.049-0.475c0.807-0.109,1.326,0.086,1.943,0.242c0.619,0.152,1.082,0.09,1.857-0.287
			c0.443-0.219,0.736-0.516,0.879-0.941C44.319,38.213,44.349,37.834,44.28,37.367z M57.234,14.533
			c0.543-0.139,1.591-0.484,1.813-0.572c0.218-0.084,1.354-0.461,2.173-0.602c0.829-0.145,1.575-0.115,1.844,0.029
			c0.045,0.039,0.225,0.211,0.299,0.373c0.1,0.221,0.387,0.768,0.883,1.021c0.416,0.207,0.721,0.328,1.643,0.246
			c1.312-0.328,1.459-1.059,1.324-1.309c-0.172-0.326-0.686-0.662-0.686-0.662s-0.689-0.441-0.838-0.65
			c-0.015-0.021-0.015-0.035-0.023-0.053c0.369-0.049,0.785-0.104,1.275-0.236c0.233-0.063,0.42-0.127,0.559-0.193l0.207,0.066
			c0.408,0.324,2.746,2.197,3.543,2.723c0.164,0.105,0.381,0.074,0.506-0.076l0.014-0.02c0.101,0.076,0.207,0.166,0.242,0.203
			c0,0,0.496-0.004,0.744,0.25c0.324,0.264,1.23,1.061,1.463,1.506l0.115,0.352c-0.062,0.127-0.051,0.275,0.029,0.393
			c0.029,0.045,0.729,1.035,1.613,2.002c0.09,0.123,0.825,1.115,1.233,1.547c-0.213,0.088-0.521,0.199-0.926,0.309
			c-0.854,0.229-1.679,0.613-1.679,0.613s-0.684,0.221-0.424,0.777c0.025,0.051,0.055,0.09,0.078,0.135
			c0.016,0.037,0.035,0.078,0.064,0.121c0,0,0.012,0.014,0.018,0.018c0.232,0.363,0.484,0.551,0.484,0.551s0.041,0.041,0.1,0.107
			c0.031,0.033,0.066,0.072,0.105,0.121c0.016,0.021,0.031,0.035,0.047,0.059c0.059,0.072,0.115,0.156,0.166,0.242
			c0.078,0.133,0.139,0.273,0.146,0.402c0.014,0.402-0.156,0.582-0.589,0.822c-0.432,0.242-0.821,0.289-0.821,0.289
			s-1.027,0.184-1.535-0.297s-0.604-1.275-0.604-1.275s-0.039-0.672-0.879-0.959c-0.846-0.287-1.881,0.326-1.881,0.326
			s-0.815,0.432-1.688,0.996c-0.873,0.566-2.522,1.258-3.557,1.621l-0.119,0.535l0.057-0.26l0.06-0.273c0-0.002,0-0.002,0-0.002
			c-0.071-0.068-0.201-0.203-0.358-0.379c-0.396-0.436-0.994-1.133-1.539-1.789c-0.533-0.639-1.015-1.232-1.191-1.484
			c-0.432-0.621-0.498-0.766-0.574-0.969c-0.02-0.051-0.021-0.119-0.01-0.193c0.035-0.229,0.186-0.535,0.324-0.697
			c0.184-0.213,0.402-0.256,0.848-0.162c0.445,0.1,0.738,0.293,1.445,0.066c0.705-0.227,0.74-0.76,0.793-1.303
			c0.041-0.408-0.316-1.156-0.717-1.74c-0.136-0.195-0.273-0.371-0.402-0.51c-0.523-0.553-1.26-0.641-1.771-0.607
			c-0.51,0.031-0.803,0.402-1.1,0.566c-0.293,0.16-0.844,0.326-1.094,0.217c-0.127-0.057-0.283-0.109-0.463-0.242
			c-0.181-0.135-0.379-0.35-0.59-0.725c-0.279-0.488-0.519-0.938-0.67-1.234C56.911,14.621,57.062,14.578,57.234,14.533z
			 M42.487,18.248c1.775-0.521,2.385-0.939,2.449-0.982c0.08-0.061,0.119-0.15,0.135-0.244c0.186-0.117,0.354-0.236,0.484-0.363
			c0,0,0.479-0.223,0.018-0.672c-0.004-0.002-0.004-0.002-0.004-0.002c-0.463-0.449-0.686-0.582-0.686-0.582
			s-0.078-0.045-0.117-0.139c-0.01-0.027-0.016-0.061-0.016-0.094c0.041-0.076,0.094-0.158,0.18-0.254
			c0.264-0.297,0.65-0.502,1.146-0.611c0.256-0.057,0.893-0.123,1.506-0.096c0.477,0.023,0.758,0.063,0.945,0.133
			c-0.027,0.279-0.068,0.662-0.06,0.781c0.007,0.121,0.021,0.385,0.294,0.633c0.053,0.156,0.151,0.301,0.327,0.373
			c0.117,0.07,0.599,0.291,1.949,0.154c0.022-0.006,0.582-0.105,1.457-0.365c2.092-0.623,3.262-0.967,3.478-1.023
			c0.02-0.004,0.045-0.014,0.062-0.016c0.105,0.211,0.283,0.543,0.584,1.055c0.691,1.191,1.896,1.648,2.418,1.594
			c0.457-0.047,1.24-0.26,1.543-0.594c0.303-0.338,0.607-0.295,0.607-0.295c0.66-0.043,0.824,0.512,1.367,1.293
			c0.545,0.781,0.209,1.391,0.209,1.391c-0.361,0.475-0.767,0.379-1.136,0.303c-0.274-0.059-0.305-0.09-0.625-0.15
			c-1.002-0.133-1.336,0.607-1.336,0.607C58.95,21.188,59.8,21.99,59.8,21.99s1.894,2.539,3.334,4.104
			c-1.09,0.377-2.502,0.848-2.502,0.848s-1.924,0.711-3.19,0.883c-1.267,0.172-1.547-0.01-1.717-0.182
			c-0.177-0.17,0.028-0.773,0.028-0.773s0.517-1.057,0.269-1.604c-0.25-0.547-1.881-0.689-1.906-0.689
			c-0.033,0-1.777-0.203-3.412,0.715c-1.453,0.813-1.645,1.258-1.645,1.258s-0.463,0.717,0.086,1.434
			c0.621,0.803,1.44,0.877,1.44,0.877s0.783,0.061,0.965,0.289c0.185,0.23,0.06,0.482,0.06,0.482s-0.256,0.707-1.707,1.004
			c0,0-2.438,0.713-6.982,1.361c-0.906-3.275-0.965-5.336-0.965-5.336c-0.066-0.633,0.01-0.902,0.291-1.084
			c0.121-0.061,0.33-0.146,0.621-0.188l0.586-0.031c0.119,0.004,0.25,0.014,0.387,0.023l0.137,0.016
			c0.266,0.02,0.631,0.051,1.063-0.131c0.004,0,0.008-0.004,0.01-0.006c0.012-0.004,0.023-0.01,0.035-0.012
			c0.082-0.033,0.16-0.066,0.229-0.104c0.326-0.184,1.215-0.668,1.152-1.66c-0.059-0.99-0.85-2.164-1.496-2.568
			c-0.162-0.102-0.336-0.168-0.514-0.201c-0.535-0.109-1.102,0.043-1.451,0.301c-0.463,0.346-0.646,0.787-0.93,0.932
			c-0.279,0.137-0.676,0.453-1.096,0.365c-0.004-0.002-0.01,0-0.012-0.002c-0.426-0.102-0.445-1.053-0.629-2.123
			c-0.072-0.434-0.135-0.793-0.184-1.078c-0.02-0.123-0.039-0.229-0.055-0.32C40.595,18.711,41.425,18.559,42.487,18.248z
			 M27.515,35.699c-0.049,0.105-0.324,0.318-0.324,0.318s-0.104,0.063-0.5,0.512c-0.396,0.451-0.514,0.889-0.531,1.273
			c-0.002,0.049,0,0.109,0.014,0.18c0.084,0.48,0.561,1.391,1.836,1.66c1.459,0.305,3.127-0.264,3.127-0.264
			s1.094-0.238,2.137-1.279c0.473-0.477,0.535-0.992,0.453-1.422c-0.105-0.553-0.443-0.965-0.443-0.965s-0.17-0.236-0.498-0.34
			c0,0-0.078-0.021-0.084-0.07c-0.002-0.016,0.004-0.035,0.025-0.059c0.049-0.057,0.146-0.229,0.389-0.4
			c0.148-0.084,0.365-0.188,0.664-0.293c0.773-0.199,3.055-0.918,8.48-1.639V32.91c0.002,0.01,0.396,1.574,0.693,2.588
			c0.297,1.018,0.432,2.021,0.477,2.23c0.043,0.211,0.033,0.586-0.242,0.807c-0.277,0.221-0.951,0.408-1.094,0.432
			c-0.145,0.02-0.41-0.033-0.766-0.156c-0.354-0.119-0.705-0.141-0.705-0.141s-0.85-0.146-1.756,0.133
			c-0.908,0.271-1.592,1.201-1.648,2.363c-0.053,1.158-0.043,1.746,0.41,2.771c0.455,1.025,1.271,1.613,1.889,1.623
			c0.619,0.012,1.125-0.309,1.48-0.805c0.352-0.498,0.455-0.576,0.455-0.576c0.418-0.232,1.488-0.332,2.031-0.131
			c0.541,0.197,1.537,0.82,2.086,2.055c0.445,0.995,0.584,2.107,0.559,4.109l0.447,0.343l-0.004,0.006l-0.451-0.347
			c-1.258,0.104-2.713,0.275-2.713,0.275s-3.289,0.467-6.303,1.396c-2.559,0.789-3.045,1.221-3.045,1.221s-0.545,0.457-0.09,1.115
			c0,0,0.262,0.414,0.791,0.826c0.525,0.416,0.947,0.811,0.889,1.01c-0.061,0.207-0.223,0.297-0.223,0.297s-0.736,0.654-3.754,1.162
			c0,0-1.939,0.375-2.537-0.213c-0.596-0.586-0.332-0.979-0.332-0.979s0.039-0.131,0.475-0.402c0,0,0.729-0.459,0.496-1.328
			c-0.232-0.867-1.633-1.949-3.145-1.938c0,0-1.764,0.004-6.283,0.584c0,0-0.008,0.002-0.014,0.002
			c0.002-0.199-0.002-0.41-0.016-0.638c-0.07-1.271-0.162-3.233-0.334-4.375c-0.172-1.145-0.486-2.912-1.529-2.966
			c0,0-0.514-0.041-1.252,0.68c-0.678,0.656-1.291-0.541-1.324-1.273c-0.039-0.857,0.1-1.729,0.314-2.145
			c0.051-0.104,0.129-0.182,0.215-0.242c0.26-0.178,0.607-0.188,0.689-0.18c0.113,0.01,0.426,0.131,0.801,0.361
			c0.281,0.178,0.643,0.221,0.934,0.1c0.098-0.039,0.186-0.094,0.264-0.17c0.303-0.303,0.727-0.656,0.898-1.994
			c0.174-1.334,0.174-2.717,0.012-4.375l-0.006-0.006c0.295-0.055,0.684-0.121,1.121-0.188c0.488-0.076,1.041-0.148,1.621-0.207
			c1.783-0.174,3.67-0.199,4.461-0.1C27.202,35.525,27.567,35.568,27.515,35.699z M14.384,23.135
			c0.061-0.043,0.156-0.104,0.213-0.129c0.092-0.025,0.17-0.086,0.219-0.166c0.01-0.018,0.83-1.389,1.189-1.912
			c0.117-0.07,0.234-0.141,0.301-0.18c0.029,0.012,0.064,0.021,0.098,0.025c0.105,0.014,0.217-0.023,0.299-0.09
			c0.041-0.039,0.438-0.396,1.354-1.631c0.068-0.082,0.098-0.191,0.084-0.297c-0.008-0.07-0.037-0.135-0.078-0.191
			c0.018-0.094,0.059-0.227,0.088-0.293c0.008-0.008,0.014-0.014,0.02-0.021c0.014-0.016,1.313-1.543,2.352-2.424
			c0,0,0.133-0.094,0.336-0.115c0.035-0.006,0.068-0.016,0.104-0.027c0.047-0.021,1.201-0.51,2.607-1.742
			c0.057-0.051,0.102-0.131,0.121-0.205c0,0,0.049-0.176,0.299-0.51c0.201-0.27,0.66-0.572,1.1-0.754
			c-0.145,0.131-0.328,0.295-0.563,0.545c-0.236,0.252-0.314,0.408-0.295,0.484c0.016,0.078,0.133,0.08,0.285,0.027
			c0.08-0.027,0.176-0.063,0.297-0.113c0.002-0.004,0.008-0.004,0.01-0.006c0.299-0.129,0.734-0.336,1.352-0.654l0.023,0.039
			c0.111,0.164,0.332,0.219,0.504,0.119c0.006-0.004,0.271-0.146,0.682-0.309c-0.234,0.504-0.641,1.303-1.104,1.877
			c0,0-0.285,0.422-0.51,0.32c-0.221-0.104-0.48-0.111-0.697-0.068c-0.215,0.049-0.887,0.27-1.492,1.084
			c-0.607,0.816-0.678,1.43-0.352,1.611c0.324,0.182,0.801-0.059,1.09-0.313c0.211-0.188,0.377-0.301,0.484-0.34
			c0.037,0.072,0.092,0.131,0.16,0.168c0,0.051-0.006,0.1-0.014,0.125c-0.021,0.074-0.119,1.049-1.246,3.002
			c-0.281,0.492-0.646,1.217-0.818,1.568v0.002c-0.004,0-0.006-0.004-0.006-0.004c-1.832,0.342-3.195,0.762-3.66,0.941
			c-0.469,0.174-0.479,0.063-0.479,0.063c-0.063-0.08-0.02-0.223,0.055-0.365c0.045-0.088,0.102-0.176,0.152-0.248
			c0.07-0.1,0.131-0.17,0.131-0.17s0.5-0.688,0.699-1.314c0.195-0.629-0.686-0.543-0.686-0.543c-0.582,0.092-0.998,0.367-1.48,0.945
			c-0.371,0.451-0.6,1.066-0.682,1.393c-0.057,0.203-0.15,0.395-0.15,0.395s-0.068,0.127-0.344,0.246
			c-0.32,0.141-0.943,0.305-0.943,0.305s-0.412,0.035-0.713-0.113c-0.1-0.051-0.297-0.037-0.455-0.01
			C14.343,23.152,14.364,23.15,14.384,23.135z M13.821,23.586c0.002-0.004,0.002-0.006,0.002-0.008l0.004-0.002h0.002L13.7,23.771
			C13.745,23.703,13.784,23.643,13.821,23.586z M11.196,28.654c-0.006,0.016-0.006,0.021-0.012,0.037
			c-0.045,0.164-0.064,0.258-0.064,0.258c-0.004,0.072,0,0.127,0.008,0.162c0.012,0.047,0.035,0.076,0.08,0.07
			c0.031,0,0.098-0.102,0.119-0.051c0.012,0.035,0.008,0.125-0.031,0.322c-0.068,0.359-0.4,1.311-0.531,1.697
			c-0.129,0.387-0.275,0.652-0.377,0.633c-0.035-0.006-0.057-0.029-0.072-0.055c-0.029-0.053-0.031-0.123-0.031-0.123
			s-0.006-0.061-0.027-0.102c-0.018-0.039-0.051-0.057-0.104-0.01C10.464,30.533,10.812,29.588,11.196,28.654z M9.901,32.307
			l0.004-0.006c0,0,0.033-0.094,0.064-0.141c0.023-0.035,0.045-0.037,0.039,0.076c-0.01,0.258,0.15,0.279,0.15,0.279
			c0.104-0.016,0.213-0.135,0.328-0.322v0.002c0.002-0.006,0.006-0.01,0.01-0.018c0.043-0.074,0.092-0.164,0.141-0.266
			c0.01-0.025,0.023-0.057,0.035-0.086c0.037-0.078,0.072-0.162,0.111-0.254c0.014-0.039,0.031-0.084,0.049-0.125
			c0.035-0.086,0.066-0.18,0.104-0.275c0.018-0.047,0.033-0.096,0.051-0.141c0.029-0.086,0.057-0.17,0.088-0.258
			c0.02-0.059,0.037-0.111,0.057-0.172c0.016-0.047,0.027-0.09,0.043-0.137c0.033-0.104,0.064-0.205,0.094-0.307
			c0.021-0.078,0.043-0.15,0.061-0.221c0.021-0.078,0.041-0.15,0.063-0.221c0.018-0.068,0.035-0.137,0.051-0.199
			c0.027-0.117,0.055-0.225,0.074-0.32c0.014-0.055,0.023-0.098,0.033-0.148c0.014-0.061,0.025-0.117,0.035-0.168
			c0.004-0.02,0.008-0.045,0.012-0.061c0.029-0.154,0.047-0.262,0.047-0.287c0-0.086-0.043-0.148-0.117-0.107
			c-0.074,0.043-0.096,0.012-0.096,0.012c-0.002-0.018,0.004-0.047,0.008-0.074c0.002-0.006,0.002-0.008,0.004-0.016
			c0.049-0.244,0.266-0.773,0.266-0.773c0.113-0.291,0.234-0.574,0.357-0.85c0.012-0.025,0.023-0.051,0.035-0.074
			c0.061-0.131,0.121-0.26,0.182-0.383c0.002-0.008,0.006-0.016,0.01-0.023c0.475-0.979,0.971-1.797,1.32-2.338
			c0.064-0.01,0.066-0.004,0.184-0.043c0,0,0.311-0.051,0.854,0.092c0.701,0.188,1.582-0.381,1.582-0.381s0.016-0.008,0.037-0.021
			c0.002,0,0.004-0.002,0.01-0.008c0.021-0.012,0.049-0.029,0.08-0.057c0.008-0.004,0.016-0.012,0.025-0.016
			c0.031-0.025,0.066-0.051,0.109-0.086c0.012-0.01,0.027-0.021,0.041-0.035c0.037-0.029,0.074-0.064,0.115-0.1
			c0.009-0.009,0.017-0.016,0.025-0.025c0.188-0.18,0.396-0.414,0.535-0.711l0.275-0.768c0,0,0.225-0.748,0.85-0.982
			c0,0,0.242-0.131,0.637-0.137c0.244-0.002,0.301,0.105,0.309,0.186c0.002,0.045-0.008,0.084-0.008,0.084s-0.045,0.18-0.451,0.699
			c-0.406,0.521-0.514,0.916-0.514,0.916s-0.137,0.313-0.041,0.543c0.033,0.078,0.092,0.148,0.188,0.193c0,0,0.186,0.107,0.721-0.07
			c0.537-0.178,2.316-0.646,3.402-0.813l0.008-0.002l-0.002,0.006c-0.203,0.582-0.465,1.492-0.359,2
			c0.154,0.775,0.887,0.775,0.887,0.775s0.162,0.006,0.406-0.045c0.016,0.008,0.023,0.021,0.041,0.029
			c0.131,0.043,0.389,0.051,0.834-0.18c0.037-0.018,0.064-0.021,0.098-0.031c0.262,0.244,0.334,0.965,0.334,1.113
			c0,0.203-0.004,1.324-0.781,1.873c0,0-0.313,0.24-0.756,0.24s-0.73-0.129-0.73-0.129s-0.754-0.209-1.219,0.063
			c-0.463,0.275-1.018,0.842-1.455,1.664c-0.436,0.82-0.801,2.287-0.781,3.369c0.016,0.852,0.139,1.66,0.225,2.207l0.508,0.334
			c-0.004,0-0.004,0-0.006,0l-0.516-0.334c0,0-1.756,0.465-3.74,0.449c-1.393-0.004-1.354-0.734-1.178-1.217
			c0.025-0.068,0.051-0.129,0.078-0.188c0.008-0.012,0.016-0.029,0.023-0.041c0.023-0.049,0.049-0.094,0.068-0.121
			c0.021-0.039,0.037-0.063,0.037-0.063s0.488-0.857,0.574-1.352c0,0,0.172-1.34-1.088-1.252c-1.262,0.088-1.512,1.184-1.512,1.184
			s-0.082,0.617-0.066,1.07c0.016,0.455,0,1.416-0.568,1.959c-0.564,0.551-1.172,0.381-1.172,0.381s-1.021-0.443-1.225-0.551
			c-0.16-0.082-0.305-0.092-0.445-0.066C9.321,34.43,9.591,33.359,9.901,32.307z M10.124,55.139c0.002-0.004,0-0.012,0.004-0.012
			c0.061-0.01,0.445,0.68,0.662,1.338c0.254,0.756,0.426,1.391,0.426,1.391s0.139,0.431,0.129,0.582
			C10.886,57.357,10.479,56.256,10.124,55.139z M13.897,63.439l-0.063-0.228c-0.023-0.084-0.074-0.153-0.143-0.205l-0.094-0.069
			c-0.717-1.218-1.355-2.472-1.928-3.748c0.002-0.006,0.002-0.021,0.002-0.031c0.008-0.021,0.014-0.049,0.014-0.084
			c0.002-0.025-0.002-0.059-0.004-0.088c-0.002-0.045-0.01-0.098-0.018-0.16c-0.004-0.018-0.002-0.029-0.006-0.049
			c-0.002,0-0.002,0-0.004-0.002c-0.063-0.369-0.229-0.98-0.598-1.976c-0.398-1.082-0.658-1.664-0.82-1.979
			c0-0.004,0-0.004,0.002-0.006c-0.016-0.028-0.031-0.055-0.043-0.08l-0.002,0.005c-0.137-0.25-0.193-0.294-0.211-0.314
			c-0.02-0.022-0.07-0.071-0.102-0.053C9.377,52.677,9,50.945,8.734,49.182c0.061,0.069,0.127,0.147,0.203,0.231
			c0.135,0.149,0.293,0.319,0.48,0.517c0,0.002,0.002,0.002,0.002,0.002c0.83,0.858,1.094,0.319,1.094,0.319s0.014-0.041,0.027-0.11
			c0.002-0.009,0.004-0.019,0.006-0.025c0.004-0.033,0.012-0.066,0.018-0.109c0.002-0.014,0.002-0.031,0.006-0.045
			c0.004-0.043,0.01-0.088,0.012-0.139c0-0.008,0.002-0.014,0.002-0.021c0,0.002-0.002,0.002-0.002,0.004
			c0.008-0.102,0.008-0.221,0-0.354c0-0.004,0-0.006,0-0.01v-0.002c-0.006-0.068-0.016-0.146-0.023-0.224
			c-0.006-0.043-0.008-0.08-0.016-0.127c-0.012-0.082-0.031-0.174-0.051-0.264c-0.008-0.035-0.012-0.064-0.021-0.101
			c0-0.006,0-0.008-0.002-0.012c-0.143-0.605-0.18-1.057-0.084-1.309c0.025-0.07,0.066-0.117,0.109-0.158
			c0.018-0.012,0.033-0.021,0.049-0.031c0.037-0.02,0.084-0.029,0.129-0.035c0.02,0,0.031-0.008,0.051-0.008
			c0.441,0.014,1.729,0.279,2.133,1.344c0,0,0.166,0.5,0.014,1.133c-0.154,0.642-0.127,1.205-0.014,1.763
			c0.109,0.557,0.58,1.078,1.121,1.51c0.543,0.433,2.107,1.181,3.631,1.272c1.521,0.099,1.992,0.017,1.992,0.017l0.566-0.582
			l-0.002-0.004l0.002-0.002c-0.002,0-0.002,0-0.006,0l-0.455-0.295c-0.248,0.028-0.549,0.057-0.857,0.08
			c-0.773,0.055-1.896-0.046-3.295-0.457c-1.348-0.402-2.201-1.121-2.373-1.582c-0.006-0.019-0.016-0.037-0.02-0.058
			c-0.02-0.076-0.029-0.149-0.031-0.235c-0.002-0.021,0-0.041-0.002-0.063c0.002-0.238,0.057-0.461,0.057-0.461
			s0.264-1.01,0.098-1.838c-0.02-0.096-0.039-0.186-0.063-0.273c-0.006-0.03-0.01-0.061-0.012-0.08
			c-0.008-0.021-0.014-0.043-0.02-0.063c-0.006-0.019-0.016-0.032-0.023-0.049c-0.182-0.611-0.486-1.113-1.133-1.504
			c-0.803-0.482-1.26-0.402-1.26-0.402s-0.721-0.107-0.693,1.111c0.028,1.218,0.18,1.729,0.18,1.729s0.137,0.432-0.082,0.485
			c-0.221,0.058-0.568-0.274-0.568-0.274s-0.156-0.144-0.371-0.353c-0.025-0.029-0.055-0.06-0.082-0.088
			c-0.145-0.146-0.303-0.312-0.457-0.481l0.068-0.175c0.051-0.121,0.035-0.258-0.039-0.362l-0.203-0.289
			c-0.154-1.411-0.232-2.847-0.232-4.275c0-2.219,0.188-4.438,0.559-6.6l0.172-0.389c0.016-0.035,0.025-0.072,0.029-0.111
			c0.166,0.031,0.311,0.105,0.311,0.105s0.873,0.471,1.26,0.551c0.389,0.08,0.672-0.051,0.926-0.225
			c0.051-0.035,0.107-0.092,0.162-0.135c0.045-0.041,0.09-0.072,0.137-0.117c0.037-0.035,0.07-0.078,0.104-0.115
			c0.063-0.064,0.125-0.127,0.184-0.199c-0.006,0.004-0.012,0.01-0.02,0.014c0.166-0.203,0.303-0.426,0.412-0.656
			c-0.006,0.021-0.014,0.041-0.025,0.07c0.047-0.094,0.086-0.186,0.119-0.271c0.021-0.059,0.039-0.129,0.057-0.209
			c0.006-0.027,0.01-0.057,0.016-0.086c0.008-0.041,0.016-0.082,0.023-0.129c0,0.01-0.004,0.016-0.006,0.023
			c0.039-0.23,0.066-0.49,0.084-0.732c0,0.002,0,0.006,0,0.012c0.033-0.383,0.041-0.701,0.041-0.713l0.002,0.01v-0.004
			c0,0,0-0.322-0.008-0.395c-0.002-0.008-0.002-0.021-0.002-0.031c-0.014-0.109-0.039-0.406,0.158-0.566
			c0.211-0.182,0.352-0.266,0.877-0.281c0.52-0.012,0.68,0.291,0.68,0.291s0.176,0.25,0.176,0.41c0,0.158-0.051,0.26-0.051,0.26
			s-0.285,0.48-0.385,0.717c-0.098,0.234-0.486,1.016-0.373,1.668v0.004c0.113,0.654,1.135,0.959,1.135,0.959
			s0.813,0.191,1.975,0.02l2.391-0.385l0.416-0.479l0.002,0.004l-0.41,0.471c0.061,0.873,0.131,2.578,0.119,3.152
			c-0.014,0.697-0.117,2.178-0.854,2.523c0,0-0.25,0.129-0.666-0.182c-0.416-0.314-0.867-0.326-1.051-0.334
			c-0.18-0.008-0.986,0.123-1.297,1.004c-0.314,0.881-0.289,2.063-0.223,2.758c0.064,0.697,0.672,1.885,1.436,1.885
			c0,0,0.371,0.027,0.809-0.424c0.436-0.449,0.691-0.488,0.887-0.48c0.195,0.004,0.572,0.209,0.822,2.186
			c0.234,1.873,0.336,3.406,0.316,5.111l0.451,0.293v0.002c0,0,0,0.002,0,0.006s0,0.011,0,0.013l-0.566,0.575
			c-0.035,0.15-0.07,0.32-0.111,0.479c-0.129,0.523-0.145,1.049-0.018,1.973c0.123,0.93,0.623,2.85,1.346,3.352
			c0.957,0.67,1.586,0.656,2.232,0.607c0.646-0.055,1.094-0.547,1.094-0.547S24.4,59.82,24.671,59.9
			c0.273,0.08,1.031,0.508,1.576,1.6c0.547,1.09,0.67,2.293-0.242,2.508c-0.908,0.209-2.477-0.648-2.477-0.648
			s-0.891-0.495-1.617,0.05c-0.73,0.549-0.748,1.385-0.385,2.414c0.201,0.565,0.6,1.485,1.159,2.444l0.109,0.045l0.433,0.181
			c-0.002,0-0.002,0-0.006,0l-0.427-0.181l-0.108-0.045c0,0,0,0-0.001,0l-0.007-0.004c-0.873-0.17-2.484-0.512-3.123-0.828
			c-0.252-0.129-0.447-0.188-0.59-0.268c-0.07-0.041-0.127-0.084-0.164-0.139c-0.066-0.096-0.092-0.225-0.064-0.441
			c0.078-0.59-0.574-1.406-0.574-1.406s-0.912-0.988-1.732-1.6c-0.82-0.615-1.168-0.434-1.168-0.434s-0.369,0.199-0.037,0.994
			c0.336,0.797,0.658,1.073,0.658,1.073s0.16,0.17,0.07,0.216c-0.092,0.045-0.373-0.168-0.607-0.365
			c-0.105-0.092-0.539-0.492-0.977-0.902C14.214,63.92,14.048,63.689,13.897,63.439z M33.675,79.725
			c1.016,0.135,2.311,0.281,2.75,0.322l0.01-0.004c-0.004,0.072-0.031,0.145-0.072,0.238c-0.076,0.172,0.084,0.303,0.234,0.381
			C35.608,80.393,34.636,80.072,33.675,79.725z M36.896,79.836l-0.006-0.004l0.119,0.008c-0.094-0.084-0.213-0.162-0.346-0.24
			c-0.002-0.002-0.004-0.002-0.006-0.004c-0.042-0.022-0.078-0.051-0.123-0.074c-0.539-0.285-2.861-1.819-3.58-2.307
			c-0.48-0.324-1.201-0.793-1.791-1.02c-0.043-0.021-0.084-0.029-0.121-0.043c-0.242-0.08-0.459-0.117-0.617-0.07
			c-0.422,0.131-0.361,0.301-0.615,0.426c-0.189,0.09-0.389,0.068-0.734-0.086c-0.008-0.004-0.014-0.006-0.02-0.01
			c-0.115-0.051-0.246-0.115-0.4-0.199c-0.045-0.023-0.088-0.045-0.133-0.07c-0.074-0.037-0.146-0.076-0.217-0.117
			c-0.381-0.209-0.773-0.461-1.398-1.012c-0.057-0.049-0.107-0.096-0.17-0.147c-0.123-0.111-0.254-0.23-0.395-0.367
			c-0.957-0.908,1.221-0.09,1.221-0.09s0.475,0.198,0.264-0.297c-0.025-0.058-0.063-0.128-0.109-0.201
			c-0.025-0.045-0.057-0.095-0.088-0.14c-0.023-0.039-0.049-0.075-0.078-0.119c-0.041-0.061-0.09-0.122-0.137-0.188
			c-0.025-0.032-0.053-0.069-0.08-0.106c-0.055-0.072-0.113-0.144-0.17-0.221c-0.031-0.037-0.061-0.076-0.094-0.117
			c-0.059-0.074-0.121-0.148-0.186-0.228c-0.043-0.051-0.086-0.103-0.131-0.153c-0.055-0.068-0.109-0.138-0.17-0.201
			c-0.068-0.08-0.141-0.164-0.215-0.246c-0.035-0.041-0.07-0.082-0.107-0.123c-0.086-0.096-0.171-0.189-0.257-0.281
			c-0.159-0.172-0.316-0.342-0.474-0.502c-0.3-0.312-0.545-0.58-0.773-0.846c-0.398-0.465-0.729-0.91-1.09-1.431l-0.42-0.491
			c0.002,0.004,0.003,0.006,0.004,0.008l-0.016-0.019l-0.146,0.414c0.377,0.572,0.809,1.134,1.287,1.613
			c0,0,1.891,2.094,2.943,3.418c0,0,0.061,0.119-0.121,0.01c-0.184-0.108-0.973-0.478-1.396-0.432
			c-0.424,0.036-0.346,0.301-0.346,0.301s0.184,0.963,3.076,2.58c0,0,1.039,0.588,1.699,0.588c0,0,0.211,0.029,0.473-0.267
			c0.266-0.293,0.346-0.26,0.529-0.2c0.18,0.059,0.422,0.188,1.334,0.848c0.91,0.656,2.68,1.668,3.314,2.093
			c0.209,0.139,0.338,0.237,0.424,0.323c-1.299-0.104-2.725-0.274-3.477-0.381c-0.336-0.131-0.668-0.271-0.998-0.41
			c-0.16-0.098-0.344-0.209-0.527-0.319c-0.398-0.238-1.592-0.693-1.592-0.693s-0.123-0.049-0.293-0.113
			c-1.422-0.723-2.797-1.531-4.121-2.43c0.232,0.08,0.473,0.117,0.652,0.01c-0.043-0.438-0.539-0.785-0.822-1
			c-0.104-0.08-0.176-0.217-0.273-0.303c-0.363-0.322-0.787-0.633-1.182-0.912c-0.326-0.229-0.773-0.363-1.064-0.635
			c-0.006-0.066,0.094-0.228,0.031-0.396c-0.256-0.686-1.219-1.482-1.82-1.848c-0.277-0.172-0.744-0.252-1-0.428
			c-0.188-0.013-0.285-0.021-0.334,0.119c-0.072,0.168,0.16,0.399,0.242,0.518c0.209,0.293,0.447,0.635,0.729,0.848
			c0.213,0.16,0.453,0.299,0.637,0.486h0.092c-0.119-0.326-0.467-0.506-0.729-0.697c-0.238-0.176-0.344-0.484-0.547-0.695
			c0.018-0.098,0.027-0.088,0.061-0.151c0.842,0.006,1.383,0.774,1.76,1.272c0.17,0.223,0.438,0.354,0.457,0.728
			c-0.09,0-0.166,0-0.213-0.029h-0.092c0.145,0.399,0.633,0.367,0.973,0.578c0.682,0.42,1.229,1.08,1.818,1.604
			c0.199,0.181,0.551,0.357,0.605,0.67c-0.41-0.021-0.699-0.252-0.967-0.428c-0.029-0.02-0.07-0.051-0.104-0.072
			c-0.389-0.28-0.768-0.58-1.145-0.879c-0.115-0.11-0.221-0.221-0.299-0.321c-0.061-0.076-0.08-0.201-0.152-0.271
			c-0.084-0.084-0.201-0.11-0.271-0.211H22.22c-0.004,0.058,0.014,0.104,0.029,0.156c-2.688-2.244-5.09-4.873-7.133-7.849
			c0.041,0.031,0.078,0.064,0.119,0.099c0.893,0.696,1.117,0.664,1.176,0.604c0.021-0.021,0.023-0.048,0.023-0.048
			s0.045-0.305-0.229-0.645c-0.076-0.093-0.164-0.22-0.25-0.353c-0.035-0.055-0.072-0.108-0.107-0.17
			c-0.105-0.18-0.193-0.363-0.238-0.52c-0.002-0.01-0.002-0.02-0.006-0.029c-0.012-0.041-0.02-0.084-0.021-0.121
			c-0.002-0.039,0.004-0.07,0.014-0.102c0-0.006,0-0.012,0.002-0.021c0.111-0.254,0.236-0.231,0.236-0.231s0.104-0.041,0.457,0.225
			c0.354,0.27,1.148,0.83,1.541,1.311c0.387,0.474,0.371,0.892,0.369,0.9c0,0.002-0.004,0.025-0.004,0.072
			c-0.004,0.143,0.029,0.475,0.35,0.826c0.426,0.465,1.328,1.312,4.492,1.801c0.016,0.004,0.031,0.004,0.047,0.01l0.148-0.42
			l0.002,0.006v-0.004l0.008,0.008l0.424,0.498c0.006,0,0.01,0,0.014,0c2.752,0.396,4.25,0.432,4.25,0.432s3.609,0.125,4.586,0.125
			c0.83,0,0.822,0.367,0.801,0.478c-0.004,0.017-0.008,0.025-0.008,0.025s-0.055,0.276-0.17,0.497
			c-0.076,0.138-0.215,0.513-0.236,0.884c-0.014,0.221,0.014,0.442,0.125,0.608c0,0,0.447,1.095,3.357,1.172
			c0,0,2.549,0.203,4.328-0.528c0.557-0.229,0.781-0.488,0.826-0.731c0.105-0.537-0.654-1.021-0.654-1.021s-0.607-0.369-0.867-0.563
			c-0.117-0.093-0.152-0.183-0.152-0.269c0.002-0.082,0.035-0.16,0.059-0.222c0.047-0.125,0.229-0.271,0.434-0.379
			c0.203-0.102,0.951-0.498,4.111-1.317c3.162-0.818,5.05-0.908,5.05-0.908s0.017-0.002,0.029-0.002
			c0.305,0.733,0.537,1.142,0.998,1.646c0.498,0.541,1.283,0.959,2.211,1.313s0.506,0.981,0.506,0.981
			c-0.529,1.148-2.106,1.193-2.57,1.248c-0.465,0.056-1.434,0.146-2.344,0.345c-0.908,0.198-1.755,0.319-2.266,0.903
			c-0.508,0.588-0.309,1.193-0.01,1.834c0.297,0.642,1.094,0.982,2.188,0.941c1.092-0.043,1.801-0.363,2.463-0.652
			s1.81-0.619,2.154-0.719c0.342-0.1,0.807-0.297,1.148,0.199c0.369,0.539,0.762,1.303,0.941,1.877l0.422-0.092
			c0,0.002,0,0.006,0,0.006c-0.074,0.016-0.142,0.031-0.195,0.043c-0.127,0.023-0.193,0.043-0.193,0.043s-0.93,0.227-2.475,0.826
			c-1.547,0.596-4.58,1.094-4.58,1.094s-0.534,0.062-1.069,0.158c-0.024,0.005-0.046,0.009-0.068,0.013
			c-0.169,0.031-0.336,0.065-0.483,0.103c0.072-0.026,0.135-0.034,0.135-0.034s0.139-0.028,0.349-0.067
			c0.023-0.004,0.045-0.008,0.068-0.013c0.279-0.052,0.665-0.116,1.055-0.168c0,0-1.952,0.225-2.131,0.478
			c-0.063,0.104-0.055,0.184-0.02,0.243c0.049,0.103,0.174,0.152,0.174,0.152s0.275,0.172,1.278,0.215c0,0,0.347,0,0.363,0.033
			c0.002,0.006,0.008,0.014,0.004,0.021c0,0.002-0.002,0.008-0.002,0.008c-0.006,0.013-0.02,0.023-0.053,0.037
			c-0.029,0.017-0.07,0.029-0.131,0.049c-0.219,0.068-0.656,0.242-2.129,0.431c-0.975,0.121-1.293,0.062-1.398,0.006
			c-0.059-0.033-0.057-0.063-0.057-0.063s0-0.016,0.006-0.041c0.008-0.024,0.021-0.065,0.053-0.117
			c0.02-0.028,0.027-0.062,0.027-0.094c0.004-0.102-0.072-0.227-0.25-0.321c0.002-0.003-0.057-0.041-0.207-0.085
			c0,0,0.014,0.005,0.025,0.015c-0.193-0.06-0.566-0.133-1.221-0.129c-1.08,0.008-3.229,0.015-5.238-0.104
			C36.985,79.842,36.94,79.84,36.896,79.836z M41.647,81.703c-0.666-0.09-1.332-0.197-1.988-0.32
			c0.396-0.021,0.67-0.041,1.008,0.029c0.486,0.102,0.982,0.225,1.031,0.268C41.718,81.691,41.687,81.701,41.647,81.703z
			 M49.516,81.982c0.524-0.072,1.155-0.111,1.508-0.148c0.147-0.018,0.246-0.02,0.313-0.02
			C50.732,81.885,50.126,81.941,49.516,81.982z M52.271,81.703c-0.043-0.027-0.147-0.051-0.395-0.062
			c-0.219-0.009-0.445-0.009-0.67,0c-0.318,0.002-0.736,0.016-1.117,0.069c-0.264,0.039-0.527,0.082-0.76,0.123
			c-0.074,0.01-0.148,0.019-0.223,0.028c-0.492,0.07-0.717,0.134-0.818,0.181c-0.43,0.015-0.859,0.031-1.293,0.031
			c-1.545,0-3.072-0.103-4.582-0.277c0.049-0.047-0.059-0.106-0.131-0.144c-0.039-0.02-0.068-0.03-0.068-0.03
			s-0.066-0.031-0.203-0.08c-0.004,0.006-0.004,0.006-0.004,0.006c-0.016-0.008-0.025-0.014-0.045-0.016
			c0.008,0,0.02,0.002,0.023,0.002c-0.074-0.023-0.178-0.054-0.293-0.084c-0.004,0-0.008-0.002-0.012-0.002
			c-0.09-0.023-0.188-0.05-0.299-0.07c-0.002-0.004-0.002-0.004-0.006-0.004c-0.23-0.051-0.506-0.101-0.838-0.142
			c0.012,0.004,0.023,0.004,0.035,0.009c-0.176-0.021-0.361-0.043-0.563-0.06c0,0-0.617-0.043-1.154,0.01
			c-0.023,0.002-0.047,0-0.068,0.002c0.002-0.002,0.008-0.002,0.012-0.002c-0.008,0-0.016,0-0.021,0
			c-0.396-0.084-0.795-0.174-1.189-0.271c-0.219-0.09-0.539-0.254-0.41-0.424c0.096-0.129,0.104-0.261,0.047-0.388
			c0.848,0.052,1.961,0.111,1.961,0.111s2.279,0.086,3.529-0.016c0.561-0.047,0.389,0.244,0.389,0.244s-0.164,0.271,0.156,0.406
			c0,0,0.592,0.336,2.564,0.121c1.971-0.22,2.406-0.66,2.406-0.66s0.229-0.211-0.271-0.31c-0.028-0.004-0.053-0.008-0.075-0.012
			c-0.015-0.006-0.027-0.013-0.033-0.013c-0.004,0-0.011,0-0.017-0.004c-0.006-0.002-0.01-0.002-0.017-0.002
			c-0.004,0-0.008-0.002-0.01-0.002c-0.004,0-0.01,0-0.016-0.002c-0.002,0-0.008,0-0.01-0.004c-0.006,0-0.01,0-0.014,0
			s-0.013-0.002-0.017-0.002s-0.006,0-0.012,0c-0.005-0.004-0.011-0.004-0.015-0.004c-0.002,0-0.008,0-0.01-0.002
			c-0.006,0-0.01,0-0.014,0c-0.002-0.004-0.008-0.004-0.008-0.004c-0.01-0.002-0.014-0.002-0.018-0.002c-0.003,0-0.005,0-0.007,0
			c-0.006,0-0.016,0-0.021-0.002c0,0,0,0-0.004,0s-0.01,0-0.017,0c-0.004-0.002-0.006-0.002-0.008-0.002c-0.006,0-0.011,0-0.019,0
			c-0.002,0-0.004,0-0.004,0c-0.006-0.004-0.012-0.004-0.016-0.004c-0.002,0-0.004,0-0.006,0c-0.008,0-0.012,0-0.014,0
			c-0.006,0-0.008-0.002-0.01-0.002c-0.007,0-0.013,0-0.017,0s-0.004,0-0.006,0c-0.029-0.002-0.063-0.002-0.099-0.008
			c-0.002,0-0.004,0-0.004,0c-0.008,0-0.012-0.002-0.016-0.002c-0.002,0-0.006,0-0.008,0c-0.008,0-0.01,0-0.018,0
			c-0.004-0.002-0.007-0.002-0.011-0.002c-0.006,0-0.012,0-0.017,0c-0.004,0-0.01,0-0.014-0.002c-0.002,0-0.008,0-0.014,0
			s-0.016,0-0.021-0.005c-0.004,0-0.008,0-0.014,0c-0.008,0-0.016-0.002-0.023-0.002c-0.002,0-0.006,0-0.01,0
			c-0.008,0-0.016,0-0.02,0c-0.006-0.002-0.008-0.002-0.016-0.002c-0.006,0-0.015,0-0.021-0.006c-0.004,0-0.008,0-0.014,0
			s-0.014,0-0.021,0c-0.004-0.002-0.014-0.002-0.016-0.002c-0.01,0-0.018-0.002-0.021-0.002c-0.006-0.002-0.012-0.002-0.018-0.002
			c-0.008,0-0.018,0-0.025-0.004c-0.006,0-0.012,0-0.016,0c-0.014-0.002-0.027-0.005-0.043-0.005
			c-0.109-0.016-0.209-0.022-0.291-0.04l-0.121-0.019c-0.186-0.051-0.217-0.119,0-0.178c0.338-0.086,0.9-0.133,0.9-0.133
			s1.727-0.24,3.115-0.6c0,0,1.487-0.353,2.961-0.867c0.582-0.205,1.069-0.353,1.448-0.459l0.332-0.492v0.002l-0.325,0.486
			c0.071,0.502-0.082,0.668-0.197,0.856c-0.119,0.199-0.453,0.453-0.285,0.904c0.166,0.457,1.291,0.309,1.941,0.114
			c0.651-0.2,1.202-0.379,1.635-0.532c0.432-0.15,0.555,0.063,0.555,0.063s0.188,0.137-0.441,0.469
			c-0.139,0.07-0.305,0.134-0.481,0.191c-0.025,0.008-0.043,0.014-0.068,0.021c-0.141,0.043-0.289,0.08-0.437,0.111
			c-0.039,0.01-0.079,0.02-0.116,0.026c-0.123,0.026-0.244,0.051-0.365,0.069c-0.053,0.011-0.101,0.021-0.149,0.027
			c-0.101,0.016-0.195,0.029-0.287,0.043c-0.053,0.008-0.107,0.014-0.156,0.021c-0.102,0.016-0.201,0.027-0.281,0.035
			c-0.066,0.008-0.123,0.014-0.172,0.018c-0.031,0-0.057,0.006-0.084,0.006c-0.016,0.002-0.035,0.004-0.051,0.004
			c-0.031,0.004-0.062,0.004-0.09,0.006c-0.021,0.002-0.043,0.004-0.064,0.004c-0.01,0.004-0.02,0.006-0.029,0.006
			c-0.027,0.003-0.057,0.011-0.086,0.015c-0.006,0.004-0.01,0.004-0.014,0.004c-0.123,0.025-0.297,0.08-0.625,0.193
			c-0.83,0.288-0.055,0.543-0.055,0.543c0.42,0.106,0.805,0.168,1.162,0.2C54.657,81.312,53.473,81.535,52.271,81.703z
			 M68.091,75.709c-0.014,0.018-0.032,0.035-0.049,0.051c-3.472,2.271-7.315,4-11.408,5.068c-0.366-0.029-0.625-0.08-0.758-0.098
			c-0.328-0.047-0.599-0.111-0.674-0.277c-0.011-0.021-0.011-0.037-0.009-0.053c0.035-0.109,0.375-0.101,0.375-0.101
			s0.07-0.01,0.185-0.022c0.334-0.045,1.084-0.162,1.871-0.379c0.144-0.039,0.285-0.08,0.431-0.127
			c1.192-0.388,1.479-0.752,1.434-1.027c-0.006-0.041-0.027-0.076-0.059-0.102c-0.011-0.011-0.023-0.019-0.035-0.025
			c-0.025-0.016-0.056-0.029-0.09-0.041c-0.021-0.004-0.035-0.01-0.056-0.014c-0.049-0.011-0.103-0.019-0.162-0.019
			c-0.01,0-0.021-0.002-0.028-0.002c-0.07,0-0.148,0.006-0.229,0.017c-0.009,0-0.013,0-0.019,0c-0.205,0.026-0.438,0.08-0.692,0.159
			c-0.72,0.236-1.789,0.578-2.039,0.632c-0.06,0.014-0.115,0.02-0.173,0.024h0.001c-0.007,0.002-0.009,0.002-0.017,0.002
			c0.006,0,0.01-0.002,0.016-0.002c-0.092,0.01-0.18,0.002-0.254-0.017c-0.012-0.002-0.022-0.004-0.032-0.01
			c-0.07-0.021-0.132-0.053-0.162-0.108c-0.09-0.156-0.168-0.406,0.11-0.695c0.273-0.289,0.306-0.53,0.306-0.53
			c0.028-0.128,0.033-0.259,0.028-0.392c0-0.033-0.002-0.067-0.004-0.101c-0.004-0.041,0-0.08-0.006-0.123
			c0.045-0.008,0.074-0.012,0.074-0.012s1.77-0.414,2.51-0.541c0.742-0.129,2.42-0.488,3.135-0.832
			c0.712-0.346,1.068-0.617,1.154-0.826c0.08-0.205-0.301-0.33-0.301-0.33s-0.453-0.104-0.391-0.262
			c0.057-0.154,0.225-0.291,0.93-0.606c0.705-0.314,1.588-0.656,2.473-0.878c0.885-0.213,0.563,0.15,0.563,0.15
			s-0.528,0.539-0.601,0.75c-0.065,0.209,0.021,0.219,0.09,0.254c0.068,0.039,0.496,0.023,0.785-0.051
			c0.293-0.074,2.656-0.975,4.095-1.797c0.036-0.021,0.071-0.043,0.104-0.062l0.301-0.498c0,0,0,0,0,0.002
			c-0.016,0.024-0.022,0.045-0.039,0.067c-0.43,0.697-0.608,1.099-0.608,1.099s-0.219,0.422-0.239,0.662
			c-0.021,0.242-0.195,0.207-0.195,0.207s-0.365-0.021-0.896,0.205c-0.017,0.006-0.026,0.01-0.045,0.016c0,0-0.021,0.014-0.06,0.029
			c-0.172,0.08-0.358,0.194-0.555,0.338c-0.035,0.022-0.066,0.043-0.107,0.069c-0.02,0.019-0.043,0.033-0.061,0.05
			c-0.566,0.465-0.957,0.856-1.178,1.102c-0.01,0.012-0.02,0.025-0.029,0.039c-0.117,0.131-0.178,0.207-0.178,0.207
			s-0.326,0.432-0.012,0.432S67.666,76,67.947,75.75C68.232,75.504,68.091,75.709,68.091,75.709z M74.87,69.977
			c-0.494,0.549-0.744,0.771-0.744,0.771s-0.084,0.088-0.176,0.199l-0.011,0.01c0,0.006-0.004,0.008-0.008,0.01h0.002
			c-0.063,0.076-0.119,0.156-0.154,0.229c-1.618,1.554-3.36,2.968-5.223,4.226c0.039-0.063,0.06-0.112,0.033-0.133h-0.004v-0.002
			c-0.096-0.078-0.477,0.194-0.477,0.194s-0.058,0.05-0.142,0.109v-0.002c-0.104,0.078-0.254,0.178-0.405,0.254
			c-0.041,0.02-0.084,0.039-0.125,0.055c-0.025,0.013-0.051,0.021-0.074,0.029c-0.057,0.014-0.111,0.025-0.156,0.023
			c-0.301-0.023,0.367-0.662,0.367-0.662s0.391-0.441,0.865-0.711c0.16-0.09,0.326-0.16,0.492-0.189
			c0.661-0.121,0.782-0.285,1.106-0.533c0.106-0.082,0.187-0.172,0.267-0.293c0.163-0.242,0.336-0.629,0.776-1.436
			c0.024-0.045,0.053-0.09,0.076-0.137c0.848-0.471,1.147-0.619,1.352-0.738c0.904-0.537,1.986-1.197,2.271-1.424
			C74.779,69.826,75.363,69.432,74.87,69.977z M80.348,62.918c0.229-0.504,0.422-1.043,0.655-1.568
			c0.229-0.522,0.563-1.039,0.547-1.789c-0.038-0.033-0.063-0.076-0.092-0.121h-0.185c-0.184,0.156-0.438,0.229-0.637,0.365
			c-0.307,0.215-0.58,0.506-0.879,0.728c-0.135,0.104-0.332,0.194-0.426,0.336c-0.152,0.227-0.123,0.616-0.305,0.815v0.121
			c0.242-0.086,0.356-0.371,0.549-0.514c0.234-0.178,0.43-0.414,0.666-0.58c0.146-0.102,0.316-0.158,0.455-0.271
			c0.096,0.019,0.088,0.029,0.154,0.063c-0.019,0.771-0.425,1.313-0.67,1.881c-0.07,0.168-0.093,0.423-0.211,0.543
			c-0.058,0.062-0.177,0.072-0.24,0.121c-0.203,0.228-0.404,0.447-0.609,0.67c-0.191,0.265-0.279,0.615-0.484,0.88
			c-0.004,0.088-0.004,0.163,0.029,0.213c0.029,0.021,0.082,0.043,0.121,0.061c0.332-0.318,0.656-0.592,0.945-0.939
			c-1.314,2.07-2.82,4.002-4.488,5.785c0.033-0.045,0.066-0.09,0.1-0.129c0.016-0.021,0.025-0.035,0.039-0.055
			c0.232-0.326,0.068-0.309,0.068-0.309s-0.049-0.009-0.197,0.051c-0.021,0.008-0.045,0.02-0.072,0.028
			c-0.014,0.009-0.02,0.011-0.033,0.017v0.002c-0.11,0.051-0.258,0.131-0.457,0.256c-0.61,0.391-1.047,0.658-1.047,0.658
			s-1.319,0.758-2.158,1.246c-0.006,0.004-0.018,0.008-0.022,0.014c0.002-0.004,0.002-0.006,0.002-0.006
			c0.604-0.941,1.316-1.764,1.857-2.367c0.661-0.738,1.454-1.934,1.454-1.934s0.492-0.847,0.511-1.234
			c0.004-0.057-0.004-0.104-0.022-0.137c-0.009-0.017-0.033-0.015-0.05-0.023c-0.016-0.009-0.03-0.023-0.055-0.023
			c-0.185-0.028-0.578,0.17-1.188,0.623c-0.549,0.41-0.994,0.691-1.365,0.888c-0.016,0.008-0.03,0.014-0.047,0.018
			c0.017-0.004,0.031-0.014,0.047-0.021c-0.209,0.098-0.424,0.17-0.61,0.188c-0.492,0.055-0.666-0.24-0.715-0.557
			c-0.025-0.189-0.009-0.385,0.012-0.521c0.054-0.359,0.238-1.184,0.813-1.512c0.576-0.324,1.379-0.312,1.942-0.393
			c0.564-0.074,0.824-0.238,0.824-0.238s0.922-0.586,1.533-1.574c0.606-0.988,1.151-2.584,1.215-4.168c0-0.018-0.002-0.035,0-0.053
			c0.002-0.154,0-0.301-0.009-0.441c-0.004-0.051-0.008-0.1-0.014-0.15c-0.012-0.104-0.024-0.202-0.041-0.297
			c-0.008-0.039-0.014-0.084-0.022-0.121c-0.024-0.118-0.056-0.229-0.091-0.334h0.005c1.514-1.205,2.967-2.735,2.967-2.735
			s0.963-0.968,1.446-1.808c0.037-0.062,0.066-0.104,0.093-0.143c0.008-0.012,0.017-0.021,0.021-0.031
			c0.021-0.024,0.039-0.045,0.053-0.049c0-0.002,0.003-0.006,0.003-0.006c0.016-0.006,0.024,0,0.028,0.014
			c0.004,0.004,0.004,0.006,0.004,0.012c0.004,0.019,0.006,0.037,0.004,0.062c0,0.004,0,0.013,0,0.019
			c0,0.002-0.002,0.004-0.002,0.004s-0.393,1.104-0.256,1.656c0,0.006,0,0.008,0,0.014c0-0.006-0.002-0.008-0.004-0.014
			c0.002,0.014,0.004,0.022,0.004,0.034c0.006,0.111,0.023,0.222,0.045,0.322c0.009,0.033,0.017,0.063,0.025,0.092
			c0.035,0.109,0.078,0.209,0.145,0.283c0.002,0.004,0.002,0.006,0.004,0.006c0.013,0.015,0.029,0.015,0.046,0.021
			c0.338,0.236,1.151-0.631,1.151-0.631s0.529-0.604,0.74-1.578c0.195-0.899,0.203-1.348,0.18-1.559
			c-0.012-0.127-0.035-0.166-0.035-0.166s-0.19-0.299-0.073-0.656c0.01-0.024,0.028-0.08,0.047-0.125
			c0.192-0.528,0.851-2.153,1.416-2.873C84.936,52.939,83.118,58.242,80.348,62.918z M79.637,63.535
			c-0.037,0.301-0.267,0.57-0.486,0.697v0.033h-0.03c0.053-0.367,0.33-0.468,0.457-0.73H79.637L79.637,63.535z M81.941,53.029
			c-0.03,0.127-0.057,0.213-0.057,0.213S81.911,53.15,81.941,53.029z M85.628,45.811l-0.187,0.311
			c-0.061,0.104-0.071,0.23-0.022,0.342l0.082,0.203c-0.004,0.006-0.008,0.014-0.01,0.018c-0.003,0.002-0.005,0.002-0.007,0.004
			c-0.01,0.018-0.022,0.039-0.034,0.057c-0.14,0.221-0.312,0.498-0.523,0.85c-0.969,1.598-1.122,2.891-1.122,2.891
			s-0.093,0.5-0.041,0.794c0.01,0.059,0.022,0.106,0.032,0.149c0.004,0.006,0.004,0.01,0.006,0.012
			c0.015,0.048,0.027,0.086,0.044,0.119c0,0.004,0,0.006,0,0.008c0.018,0.043,0.034,0.082,0.043,0.111
			c0.004,0.008,0.006,0.01,0.006,0.019c0.008,0.02,0.014,0.041,0.014,0.059c0.006,0.033-0.008,0.191-0.051,0.404
			c-0.008,0.041-0.021,0.082-0.029,0.127c-0.008,0.039-0.016,0.071-0.027,0.11c-0.023,0.084-0.051,0.175-0.084,0.267
			c-0.01,0.028-0.023,0.063-0.035,0.094c-0.041,0.103-0.086,0.207-0.141,0.314c-0.006,0.012-0.014,0.026-0.02,0.041
			c-0.336,0.622-0.625,0.791-0.625,0.791s-0.58,0.42-0.66,0.12c-0.078-0.299-0.057-0.553-0.027-0.739
			c0.027-0.191,0.223-1.213,0.193-1.588c-0.025-0.382-0.369-0.078-0.369-0.078s-0.076,0.092-0.227,0.28
			c-0.148,0.189-0.986,1.259-1.308,1.632c-0.758,0.887-1.447,1.522-3.291,3.012c-0.004,0.004-0.013,0.011-0.015,0.013
			c-0.006-0.009-0.01-0.015-0.016-0.021c-0.07-0.113-0.139-0.213-0.201-0.293c-0.082-0.107-0.156-0.191-0.203-0.254
			c-0.217-0.281-0.612-0.156-1.096-1.324c-0.486-1.168-0.598-2.16-0.586-2.85c0-0.097,0.002-0.188,0.01-0.273
			c0.045-0.682,0.207-0.941,0.521-1.236c0.316-0.291,1.705-0.162,1.705-0.162s0.682,0.142,1.295-0.871
			c0.451-0.75,0.541-1.854,0.479-2.712c-0.021-0.299-0.062-0.564-0.11-0.775c-0.195-0.828-0.479-1.545-1.607-1.662
			c-1.129-0.119-1.639,1.271-1.639,1.271s-0.229,0.531-0.468,0.836c-0.239,0.305-0.891,0.219-0.891,0.219
			c-0.283-0.033-0.629,0.078-0.969-0.621c-0.336-0.693-1.105-2.518-1.105-2.518c-0.26-0.621-0.426-1.16-0.526-1.574l-0.556-0.23
			l-0.002-0.002l0.556,0.223c0.782-0.428,2.12-1.209,3.075-2.016c1.435-1.205,2.834-2.473,3.191-2.787
			c0.359-0.322,0.686-0.58,1.004-0.563c0.316,0.016,0.562,0.242,0.756,1.098c0.199,0.857,0.238,1.563,0.326,1.98
			c0.092,0.416,0.221,0.902,0.717,0.998c0.494,0.1,1.158-0.332,1.406-0.545c0.064-0.053,0.143-0.139,0.223-0.252
			c0.004-0.006,0.009-0.016,0.013-0.02c0.034-0.049,0.067-0.1,0.103-0.16c0.19-0.332,0.362-0.822,0.346-1.4
			c0,0,0.051-1.232-0.584-2.398c0,0-0.271-0.471-0.367-0.6c-0.066-0.092-0.119-0.184-0.006-0.402
			c0.027-0.053,0.062-0.119,0.106-0.191c0.14-0.219,0.361-0.498,0.701-0.689c0.342-0.195,0.676-0.242,0.865-0.303
			c0,0,0.211-0.051,0.479-0.199v-0.004c0,0,0,0,0.004,0c0.002,0.008,0.004,0.014,0.006,0.021c0.403,1.256,0.869,3.348,0.869,3.348
			s0.145,0.615,0.157,0.9c0.017,0.283-0.047,0.291-0.176,0.143c-0.125-0.15-0.252-0.059-0.252-0.059s-0.134,0.059-0.134,0.594
			c0,0.539,0.063,1.799,0.164,2.773c0.119,1.152,0.474,1.635,0.474,1.635s0.317,0.473,0.403-0.443
			c0.002-0.031,0.007-0.051,0.011-0.078c0.012,0.42,0.041,0.842,0.041,1.264C85.706,44.166,85.68,44.988,85.628,45.811z"/>
		<path style="opacity:0.88;enable-background:new    ;" d="M67.477,54.885c-0.343-0.209-0.39-1.283-0.517-1.758
			c-0.252-0.93-0.371-1.908-0.64-2.852c-0.17-0.604-0.399-1.232-0.332-1.971c0.107-0.107,0.177-0.246,0.304-0.337
			c0.172-0.118,0.444-0.174,0.578-0.332c0.021-0.041-0.015-0.1-0.031-0.184c-0.354,0.057-0.674,0.271-0.973,0.393
			c-0.607,0.261-1.201,0.414-1.818,0.671c-0.192,0.075-0.396,0.215-0.639,0.239v0.183c0.021,0.012,0.041,0.021,0.062,0.032
			c0.03,0.035,0.793-0.301,1.03-0.092c0.272,0.099,0.237,0.451,0.396,0.666c-0.045,0.472-0.517,1.197-0.699,1.608
			c-0.443,1.021-0.896,1.986-1.393,2.941c-0.189,0.365-0.416,1.021-0.668,1.303v0.029c-0.164-0.225-0.15-0.803-0.24-1.121
			c-0.271-0.945-0.441-1.981-0.729-2.91c-0.051-0.178-0.233-0.979-0.119-1.151c0.039-0.42,0.632-0.603,0.972-0.728
			c-0.011-0.07-0.021-0.145-0.031-0.211c-0.537,0.08-1.094,0.365-1.576,0.545c-0.457,0.17-0.875,0.24-1.336,0.396
			c-0.229,0.078-0.488,0.209-0.756,0.239v0.033h-0.031c0.012,0.084,0.02,0.131,0.061,0.178c0.123,0.087,0.789-0.266,1.063-0.055
			c0.426,0.144,0.438,0.824,0.575,1.271c0.367,1.209,0.56,2.551,0.91,3.793c0.086,0.309,0.302,1.291,0.09,1.547
			c-0.11,0.336-0.678,0.469-1,0.607c0.013,0.061,0.019,0.121,0.027,0.182c0.467-0.07,0.892-0.287,1.31-0.43
			c0.813-0.271,1.584-0.5,2.366-0.791c-0.01-0.07-0.02-0.141-0.03-0.211c-0.332,0.09-0.593,0.19-1.063,0.182
			c-0.061-0.053-0.119-0.102-0.178-0.152c-0.053-0.16-0.105-0.322-0.154-0.481c0.035-0.386,0.523-1.093,0.697-1.427
			c0.516-0.994,0.969-1.994,1.424-3.035c0.176-0.397,0.578-0.977,0.637-1.424c0.146,0.088,0.103,0.338,0.152,0.519
			c0.102,0.36,0.162,0.752,0.271,1.151c0.217,0.767,0.301,1.591,0.518,2.396c0.078,0.295,0.199,0.803,0.061,1.123
			c-0.137,0.307-0.646,0.516-0.971,0.635c0.014,0.063,0.027,0.141,0.062,0.185c0.004,0.006,0.692-0.224,0.815-0.273
			c0.846-0.358,1.713-0.733,2.576-1.062c-0.014-0.071-0.02-0.145-0.029-0.211C68.264,54.791,67.771,55.068,67.477,54.885z"/>
		<path style="opacity:0.88;enable-background:new    ;" d="M33.351,64.566c-0.127-0.209-0.375-0.262-0.549-0.426
			c-0.051-0.017-0.027-0.007-0.059-0.029c0.389-0.201,0.807-0.426,1.213-0.605c0.109,0.121,0.613,0.605,0.789,0.514
			c0.029-0.01,0.061-0.02,0.09-0.028c-0.01-0.173-0.018-0.345-0.029-0.517c-0.385-0.381-0.947-0.699-1.58-0.815v0.028h-0.029
			c0.07,0.209,0.305,0.408,0.486,0.517v0.092c-0.357,0.052-0.678,0.226-1,0.334c-0.223,0.07-0.49,0.062-0.67,0.181h-0.09
			c0.131-0.369,0.564-0.666,0.789-0.972c0.441-0.596,0.791-1.323,1.486-1.668c-0.018-0.28-0.824-0.858-1.123-0.668
			c-0.074,0.037-0.021-0.017-0.061,0.06c-0.045,0.11,0.105,0.248,0.061,0.426c-0.059,0.234-0.635,1.334-0.789,1.457v0.031
			c-0.313-0.109-0.549-0.402-0.848-0.55c0.053-0.274,0.285-0.491,0.424-0.694c0.348-0.527,0.627-1.023,1.152-1.365
			c-0.004-0.402-0.654-0.826-1.092-0.818c0,0.186,0.096,0.291,0.063,0.457c-0.107,0.492-0.334,0.992-0.518,1.426
			c-0.119,0.277-0.172,0.611-0.365,0.814c-0.041,0.025-0.377-0.004-0.455-0.061c-0.113,0-0.229,0.006-0.301,0.03v0.062
			c0.512,0.496,1.063,0.662,1.758,0.971c-0.096,0.502-0.602,0.838-0.848,1.215c-0.127,0-0.23-0.006-0.303-0.062
			c-0.07,0.016-0.076,0.02-0.123,0.033c0.014,0.444,0.385,0.825,0.758,0.909c0.252-0.278,0.564-0.416,0.941-0.573
			c0.346,0.358,0.445,0.871,0.576,1.453c0.059,0.254-0.037,0.534,0.029,0.756c0.117,0.396,0.328,0.512,0.516,0.789h0.213
			c0.133-0.711-0.195-1.404-0.363-1.972C33.45,65.053,33.401,64.809,33.351,64.566z"/>
		<path style="opacity:0.88;enable-background:new    ;" d="M32.073,65.111c-0.045,0.102-0.039,0.271-0.088,0.393
			c-0.264,0.646-0.35,0.779,0.059,1.398c0.182,0,0.207-0.029,0.305-0.094C32.47,66.305,32.487,65.35,32.073,65.111z"/>
		<path style="opacity:0.88;enable-background:new    ;" d="M66.657,65.293c-0.888-0.219-1.632,0.219-2.552,0.152
			c-0.086-0.092-0.151-0.146-0.211-0.271c-0.641,0.02-1.346,1.447-0.696,1.879c0.35,0.236,1.338,0.102,1.76,0
			c0.235-0.051,0.603-0.104,0.789,0.031c0.254,0.189,0.209,0.904,0.119,1.307c-0.101,0.748-0.203,1.494-0.304,2.244
			c-0.09,0.453-0.182,0.91-0.272,1.363c0.465-0.002,0.901-0.475,1.035-0.82c0.075-0.195,0.034-0.385,0.09-0.604
			c0.162-0.638,0.183-1.398,0.336-2.063c0.097-0.43,0.028-0.844,0.119-1.242c0.065-0.303,0.108-1.301,0.03-1.578
			C66.854,65.533,66.734,65.414,66.657,65.293z"/>
		<path style="opacity:0.88;enable-background:new    ;" d="M81.82,57.439c-0.11,0.1-0.271,0.123-0.395,0.211
			c-0.385,0.274-0.785,0.735-1.061,1.123c-0.221,0.309-0.412,0.645-0.607,0.973c-0.088,0.143-0.105,0.309-0.213,0.424v0.061
			c0.266-0.045,0.42-0.219,0.607-0.334c0.504-0.312,0.957-0.6,1.426-0.938c0.223-0.166,0.393-0.424,0.637-0.576
			c0.021-0.364,0.096-0.647-0.062-0.912C82.061,57.449,81.952,57.439,81.82,57.439z M81.456,58.531
			c-0.183,0.133-0.356,0.322-0.545,0.453c-0.158,0.113-0.351,0.172-0.484,0.305h-0.03c0.1-0.312,0.627-0.848,0.879-1.029
			c0.131-0.096,0.293-0.123,0.426-0.215h0.121c0.027,0.037,0.025,0.035,0.061,0.061C81.854,58.334,81.605,58.416,81.456,58.531z"/>
		<path style="opacity:0.88;enable-background:new    ;" d="M33.804,64.719c-0.061,0.262,0.584,0.85,0.787,1.002
			c0.104,0.078,0.24,0.252,0.396,0.18c0.078-0.006,0.104-0.016,0.15-0.028c0.035-0.08,0.09-0.187,0.031-0.271
			C35.153,65.219,34.165,64.791,33.804,64.719z"/>
		<path style="opacity:0.88;enable-background:new    ;" d="M66.352,75.365h-0.304c-0.2,0.162-0.53,0.182-0.76,0.305
			c-0.203,0.107-0.445,0.256-0.638,0.393c-0.155,0.113-0.25,0.32-0.395,0.455c0.002,0.152,0.006,0.176,0.123,0.213
			c0.029,0.021,0.006,0.013,0.057,0.031c0.031-0.035,0.063-0.049,0.094-0.092c0.025-0.018-0.021-0.08-0.03-0.18
			c0.293-0.295,0.513-0.459,0.94-0.639c0.109-0.043,0.343-0.179,0.484-0.093h0.061c-0.02,0.302-0.7,1.224-0.909,1.369v0.086
			c0.559-0.146,0.932-1.26,1.305-1.666c-0.008-0.069-0.008-0.084-0.028-0.121V75.365z"/>
		<path style="opacity:0.88;enable-background:new    ;" d="M24.743,70.418c0.005,0.006,0.011,0.012,0.016,0.02
			c0.002,0,0.003,0.002,0.004,0.004C24.755,70.434,24.749,70.426,24.743,70.418z"/>
	</g>
</g>
<g>
</g>
<g>
</g>
<g>
</g>
<g>
</g>
<g>
</g>
<g>
</g>
<g>
</g>
<g>
</g>
<g>
</g>
<g>
</g>
<g>
</g>
<g>
</g>
<g>
</g>
<g>
</g>
<g>
</g>
</svg>
