<svg height="496pt" viewBox="0 0 496 496" width="496pt" xmlns="http://www.w3.org/2000/svg"><path d="m40 184v272c0 17.671875 14.328125 32 32 32h352c17.671875 0 32-14.328125 32-32v-272" fill="#7ecb92"/><path d="m40 184h416v40h-416zm0 0" fill="#568e53"/><path d="m200 184h-160c-17.671875 0-32-14.328125-32-32s14.328125-32 32-32h416c17.671875 0 32 14.328125 32 32s-14.328125 32-32 32h-160" fill="#7ecb92"/><path d="m200 128h96v56h-96zm0 0" fill="#e4725f"/><path d="m200 184h96v40h-96zm0 0" fill="#af4a47"/><path d="m200 224h96v264h-96zm0 0" fill="#e4725f"/><path d="m348.214844 98.359375 67.785156-42.359375-24 40 24 24h-104" fill="#af4a47"/><path d="m147.785156 98.359375-67.785156-42.359375 24 40-24 24h104" fill="#af4a47"/><path d="m192 8c30.929688 0 56 25.070312 56 56v56h-56c-30.929688 0-56-25.070312-56-56s25.070312-56 56-56zm0 0" fill="#e4725f"/><path d="m304 8c-30.929688 0-56 25.070312-56 56v56h56c30.929688 0 56-25.070312 56-56s-25.070312-56-56-56zm0 0" fill="#e4725f"/><path d="m280 56c-17.671875 0-32 14.328125-32 32v32h32c17.671875 0 32-14.328125 32-32s-14.328125-32-32-32zm0 0" fill="#fff"/><path d="m216 56c17.671875 0 32 14.328125 32 32v32h-32c-17.671875 0-32-14.328125-32-32s14.328125-32 32-32zm0 0" fill="#fff"/><path d="m456 192h-160v-16h160c13.230469 0 24-10.769531 24-24s-10.769531-24-24-24h-416c-13.230469 0-24 10.769531-24 24s10.769531 24 24 24h160v16h-160c-22.054688 0-40-17.945312-40-40s17.945312-40 40-40h416c22.054688 0 40 17.945312 40 40s-17.945312 40-40 40zm0 0"/><path d="m424 496h-352c-22.054688 0-40-17.945312-40-40v-272h16v272c0 13.230469 10.769531 24 24 24h352c13.230469 0 24-10.769531 24-24v-272h16v272c0 22.054688-17.945312 40-40 40zm0 0"/><path d="m304 128h-56c-4.414062 0-8-3.574219-8-8v-56c0-35.289062 28.710938-64 64-64s64 28.710938 64 64-28.710938 64-64 64zm-48-16h48c26.472656 0 48-21.527344 48-48s-21.527344-48-48-48-48 21.527344-48 48zm0 0"/><path d="m280 128h-32c-4.414062 0-8-3.574219-8-8v-32c0-22.054688 17.945312-40 40-40s40 17.945312 40 40-17.945312 40-40 40zm-24-16h24c13.230469 0 24-10.769531 24-24s-10.769531-24-24-24-24 10.769531-24 24zm0 0"/><path d="m410.34375 125.65625-24-24c-2.601562-2.59375-3.097656-6.625-1.199219-9.777344l6.871094-11.453125-39.550781 24.71875-8.488282-13.558593 67.785157-42.371094c3.140625-1.96875 7.214843-1.503906 9.847656 1.074218 2.636719 2.589844 3.160156 6.65625 1.253906 9.832032l-20.785156 34.640625 19.585937 19.582031zm0 0"/><path d="m248 128h-56c-35.289062 0-64-28.710938-64-64s28.710938-64 64-64 64 28.710938 64 64v56c0 4.425781-3.585938 8-8 8zm-56-112c-26.472656 0-48 21.527344-48 48s21.527344 48 48 48h48v-48c0-26.472656-21.527344-48-48-48zm0 0"/><path d="m248 128h-32c-22.054688 0-40-17.945312-40-40s17.945312-40 40-40 40 17.945312 40 40v32c0 4.425781-3.585938 8-8 8zm-32-64c-13.230469 0-24 10.769531-24 24s10.769531 24 24 24h24v-24c0-13.230469-10.769531-24-24-24zm0 0"/><path d="m85.65625 125.65625-11.3125-11.3125 19.585938-19.582031-20.785157-34.640625c-1.90625-3.175782-1.382812-7.242188 1.246094-9.832032 2.640625-2.585937 6.714844-3.050781 9.847656-1.074218l67.785157 42.371094-8.488282 13.558593-39.550781-24.71875 6.871094 11.453125c1.886719 3.152344 1.390625 7.175782-1.199219 9.777344zm0 0"/><path d="m288 120h16v368h-16zm0 0"/><path d="m192 120h16v368h-16zm0 0"/></svg>