<svg height="480pt" viewBox="0 0 480.01082 480" width="480pt" xmlns="http://www.w3.org/2000/svg"><path d="m188.011719 375.8125c4.742187 0 9.398437-.246094 13.976562-.613281 1.707031 5.269531 4.640625 10.0625 8.558594 13.980469 6.703125 6.839843 15.886719 10.675781 25.464844 10.632812h52.335937c2.964844 34.167969 24.484375 63.929688 56 77.457031l4.550782 1.917969c.984374.414062 2.042968.628906 3.113281.625h120c4.417969 0 8-3.582031 8-8v-192c0-1.535156-.441407-3.035156-1.273438-4.328125l-53.128906-82.632813c-11.546875-18.007812-30.566406-29.890624-51.816406-32.375-14.628907-99.148437-104.503907-169.363281-204.25-159.570312-99.742188 9.792969-174.246094 96.144531-169.316407 196.246094 4.933594 100.105468 87.558594 178.71875 187.785157 178.660156zm48-32h24.320312c-13.714843 6.386719-28.21875 10.914062-43.128906 13.457031 2.765625-8.03125 10.3125-13.433593 18.808594-13.457031zm123.511719-168c.289062 4.058594.488281 8.089844.488281 12 0 29.113281-7.410157 57.742188-21.527344 83.199219l-.800781-.796875c-5.574219-5.542969-12.808594-9.105469-20.601563-10.136719 5.007813-8.96875 9.054688-18.445313 12.074219-28.265625h14.855469v-16h-10.679688c1.785157-9.226562 2.679688-18.601562 2.679688-28 0-4.046875-.199219-8.046875-.519531-12zm-141.5625 140.464844c-1.269532-2.640625-1.9375-5.53125-1.949219-8.464844 0-11.042969 8.953125-20 20-20h37.894531c-16.058594 13.890625-35.261719 23.660156-55.945312 28.464844zm68.394531-46.121094c-.511719.511719-.871094 1.121094-1.351563 1.65625h-48.992187c-11.015625-.070312-19.929688-8.984375-20-20 0-11.042969 8.953125-20 20-20h76.390625c-3.96875 11.199219-9.433594 21.804688-16.246094 31.535156-3.625 1.707032-6.9375 4.007813-9.800781 6.808594zm-78.34375-86.34375c0-8.835938 7.164062-16 16-16 8.835937 0 16 7.164062 16 16s-7.164063 16-16 16c-8.835938 0-16-7.164062-16-16zm112 4c0 9.417969-1.023438 18.804688-3.050781 28h-80.949219c-1.757813-.035156-3.5-.304688-5.183594-.800781 14.675781-3.199219 25.152344-16.175781 25.183594-31.199219-.035157-2.703125-.417969-5.390625-1.136719-8h64.527344c.359375 3.945312.609375 7.9375.609375 12zm-75.058594-28c-13.035156-11.367188-32.757813-10.273438-44.457031 2.46875-11.699219 12.742188-11.109375 32.488281 1.332031 44.507812 1.679687 5.441407 4.675781 10.386719 8.71875 14.398438.996094.933594 2.042969 1.804688 3.136719 2.617188-8.597656 6.757812-13.632813 17.074218-13.671875 28.007812-.050781 9.53125 3.75 18.675781 10.535156 25.367188.996094.933593 2.042969 1.804687 3.136719 2.617187-8.597656 6.761719-13.632813 17.078125-13.671875 28.015625.011719 3.8125.644531 7.59375 1.871093 11.199219-70.667968 7.53125-134.609374-42.238281-144.660156-112.59375-10.046875-70.351563 37.410156-136.03125 107.359375-148.585938 69.949219-12.554687 137.28125 32.523438 152.324219 101.980469zm-8.941406 168c14.859375-5.125 28.800781-12.609375 41.285156-22.160156 1.613281 5.96875 4.746094 11.417968 9.089844 15.816406l4.320312 4.320312c-.929687.679688-1.878906 1.351563-2.832031 2.023438zm114.640625 134.738281c-28.289063-12.136719-46.632813-39.957031-46.640625-70.738281 0-4.417969-3.582031-8-8-8h-60c-5.332031.019531-10.441407-2.125-14.160157-5.941406-1.355468-1.367188-2.496093-2.925782-3.394531-4.625 26.625-4.3125 51.992188-14.355469 74.355469-29.433594h15.917969l34.894531 34.898438c-3.328125 31.953124 8.804688 63.574218 32.648438 85.101562h-22.664063zm61.542968-261.050781 51.816407 80.664062v181.648438h-61.441407l-7.878906-5.597656c-25.902344-18.433594-39.324218-49.804688-34.761718-81.265625.359374-2.492188-.480469-5.011719-2.261719-6.792969l-60-60c-7.710938-7.957031-7.613281-20.628906.222656-28.460938 7.835937-7.835937 20.507813-7.9375 28.464844-.226562l60 60 11.3125-11.3125-47.417969-47.414062c16.894531-28.78125 25.785156-61.554688 25.761719-94.929688 0-3.558594-.128907-7.199219-.34375-10.863281 15.023437 2.816406 28.222656 11.699219 36.496093 24.550781zm-224.183593-185.6875c84.1875-.105469 156.003906 60.90625 169.511719 144h-24.34375c-14.8125-76.636719-86.621094-128.578125-164.042969-118.65625s-133.8125 78.289062-128.824219 156.183594c4.992188 77.898437 69.644531 138.511718 147.699219 138.472656 7.8125-.027344 15.605469-.691406 23.3125-1.984375.742187.714844 1.597656 1.320313 2.359375 1.96875-7.296875 5.808594-12.039063 14.230469-13.214844 23.480469-4.097656.320312-8.242188.535156-12.457031.535156-94.992188 0-172-77.007812-172-172s77.007812-172 172-172zm0 0"/><path d="m152.011719 111.8125c-12.523438.03125-23.878907 7.367188-29.058594 18.769531-3.371094-1.792969-7.125-2.742187-10.941406-2.769531-11.152344-.070312-20.886719 7.550781-23.488281 18.394531-2.605469 10.84375 2.601562 22.054688 12.570312 27.054688 9.96875 5.003906 22.066406 2.480469 29.203125-6.089844 10.492187 9.75 26.1875 11.324219 38.410156 3.859375 12.21875-7.46875 17.980469-22.152344 14.09375-35.9375-3.886719-13.78125-16.46875-23.296875-30.789062-23.28125zm-40 48c-4.417969 0-8-3.582031-8-8s3.582031-8 8-8 8 3.582031 8 8-3.582031 8-8 8zm40 0c-8.835938 0-16-7.164062-16-16s7.164062-16 16-16c8.835937 0 16 7.164062 16 16s-7.164063 16-16 16zm0 0"/><path d="m224.011719 87.8125c-13.253907 0-24 10.746094-24 24s10.746093 24 24 24c13.253906 0 24-10.746094 24-24s-10.746094-24-24-24zm0 32c-4.417969 0-8-3.582031-8-8s3.582031-8 8-8 8 3.582031 8 8-3.582031 8-8 8zm0 0"/><path d="m156.011719 223.8125c-5.355469.011719-10.589844 1.566406-15.082031 4.480469-6.257813-11.433594-20.496094-15.785157-32.074219-9.796875-11.578125 5.984375-16.261719 20.117187-10.550781 31.835937 5.710937 11.714844 19.730468 16.730469 31.578124 11.296875 4.972657 13.285156 19.097657 20.753906 32.875 17.382813 13.78125-3.371094 22.863282-16.515625 21.140626-30.597657-1.722657-14.078124-13.703126-24.648437-27.886719-24.601562zm-36 24c-4.417969 0-8-3.582031-8-8s3.582031-8 8-8 8 3.582031 8 8-3.582031 8-8 8zm36 16c-6.628907 0-12-5.371094-12-12 0-6.625 5.371093-12 12-12 6.625 0 12 5.375 12 12 0 6.628906-5.375 12-12 12zm0 0"/></svg>